<svg width="60" height="60" viewBox="0 0 60 60" fill="none" xmlns="http://www.w3.org/2000/svg">
<path d="M38.1651 32.4245H34.2351C33.5251 32.4245 32.9251 31.8245 32.9251 31.1145C32.9251 30.4045 33.5351 29.8045 34.2351 29.8045H38.1651C38.4651 29.8045 38.5651 29.6045 38.6651 29.5045C38.7651 29.4045 38.7651 29.2045 38.6651 29.0045L30.2951 15.0945C30.1951 14.9945 29.9951 14.9945 29.8951 14.9945C29.7951 14.9945 29.5951 14.9945 29.4951 15.1945L21.1251 29.1045C21.0251 29.3045 21.0251 29.5045 21.1251 29.6045C21.2251 29.7045 21.3251 29.9045 21.6251 29.9045H25.4551C26.1651 29.9045 26.7651 30.5145 26.7651 31.2145C26.7651 31.9145 26.1551 32.5245 25.4551 32.5245H21.5251C20.4151 32.5245 19.4051 31.9145 18.9051 30.9145C18.4051 29.9145 18.4051 28.7945 19.0051 27.7845L27.2751 13.9745C27.8851 13.0645 28.7851 12.5645 29.8951 12.5645C31.0051 12.5645 31.9151 13.0645 32.5151 13.9745L40.8851 27.8845C41.4951 28.7945 41.4951 30.0045 40.9851 31.0145C40.3851 31.9245 39.3751 32.4245 38.1651 32.4245Z" fill="#FBF9FF"/>
<path d="M39.0751 57.8251H19.7151C19.3151 57.8251 18.905 57.6251 18.705 57.3251C18.505 57.0251 18.4051 56.6151 18.5051 56.2151L22.1351 44.1151C22.3351 43.6151 22.735 43.2051 23.345 43.2051H35.445C36.045 43.2051 36.455 43.6051 36.655 44.1151L40.285 56.2151C40.385 56.6151 40.285 57.0251 40.085 57.3251C39.885 57.6251 39.4851 57.8251 39.0751 57.8251ZM21.435 55.3051H37.3651L34.5451 45.7251H24.265L21.445 55.3051H21.435Z" fill="#FBF9FF"/>
<path d="M30.7052 39.7846C30.7052 40.4946 30.1052 41.0946 29.3952 41.0946C28.6852 41.0946 28.0852 40.4946 28.0852 39.7846C28.0852 39.0746 28.6852 38.4746 29.3952 38.4746C30.1052 38.4746 30.7052 39.0746 30.7052 39.7846Z" fill="#FBF9FF"/>
<path d="M45.125 57.8251H13.665C12.955 57.8251 12.355 57.2251 12.355 56.5151C12.355 55.8051 12.965 55.2051 13.665 55.2051H45.125C45.835 55.2051 46.435 55.8051 46.435 56.5151C46.335 57.2251 45.835 57.8251 45.125 57.8251Z" fill="#FBF9FF"/>
<path d="M11.2451 37.2645H2.77509C2.06509 37.2645 1.46509 36.6545 1.46509 35.9545C1.46509 35.2545 2.06509 34.6445 2.77509 34.6445H11.2451C11.9551 34.6445 12.4551 35.2445 12.4551 35.9545C12.4551 36.6645 11.9551 37.2645 11.2451 37.2645Z" fill="#FBF9FF"/>
<path d="M57.2151 37.2645H18.5051C17.7951 37.2645 17.1951 36.6545 17.1951 35.9545C17.1951 35.2545 17.8051 34.6445 18.5051 34.6445H57.2251C57.9351 34.6445 58.5351 35.2445 58.5351 35.9545C58.5351 36.6645 57.9351 37.2645 57.2251 37.2645H57.2151Z" fill="#FBF9FF"/>
<path d="M51.9751 37.265C51.2651 37.265 50.6651 36.655 50.6651 35.955V9.93504H9.12513V36.045C9.12513 36.755 8.52513 37.355 7.81513 37.355C7.10513 37.355 6.50513 36.755 6.50513 36.045V8.72504C6.50513 8.01504 7.10513 7.41504 7.81513 7.41504H51.9751C52.6851 7.41504 53.2851 8.02504 53.2851 8.72504V36.045C53.1851 36.755 52.5751 37.255 51.9751 37.255V37.265Z" fill="#FBF9FF"/>
<path d="M54.195 45.7248H5.80499C3.48499 45.7248 1.57499 43.8048 1.57499 41.4948V6.4048C1.56499 4.0948 3.48499 2.1748 5.80499 2.1748H54.195C56.515 2.1748 58.425 4.0948 58.425 6.4048V41.4948C58.425 43.8148 56.505 45.7248 54.195 45.7248ZM5.80499 4.5948C4.89499 4.5948 4.09499 5.4048 4.09499 6.3048V41.3948C4.09499 42.3048 4.90499 43.1048 5.80499 43.1048H54.195C55.105 43.1048 55.905 42.2948 55.905 41.3948V6.4048C55.905 5.4948 55.095 4.6948 54.195 4.6948H5.80499V4.5948Z" fill="#FBF9FF"/>
<path d="M29.8952 28.895C29.1852 28.895 28.5852 28.285 28.5852 27.585V19.725C28.5852 19.015 29.1952 18.415 29.8952 18.415C30.5952 18.415 31.2052 19.015 31.2052 19.725V27.585C31.1052 28.295 30.5952 28.895 29.8952 28.895Z" fill="#FBF9FF"/>
<path d="M29.8951 32.9244H29.6951C29.5951 32.9244 29.4951 32.9244 29.4951 32.8244C29.3951 32.8244 29.3951 32.7244 29.2951 32.7244C29.1951 32.7244 29.1951 32.6244 29.0951 32.5244C29.0284 32.4577 28.9617 32.3911 28.8951 32.3244C28.8951 32.2244 28.7951 32.2244 28.7951 32.1244C28.7951 32.0244 28.6951 31.9244 28.6951 31.9244V31.5244C28.6951 31.4244 28.6951 31.3244 28.7951 31.3244C28.7951 31.2244 28.8951 31.2244 28.8951 31.1244C28.8951 31.0244 28.9951 31.0244 29.0951 30.9244C29.1617 30.8577 29.2284 30.7911 29.2951 30.7244C29.3951 30.7244 29.3951 30.6244 29.4951 30.6244C29.5951 30.6244 29.6951 30.5244 29.6951 30.5244H30.1951C30.2951 30.5244 30.3951 30.5244 30.3951 30.6244C30.4951 30.6244 30.4951 30.7244 30.5951 30.7244C30.6951 30.7244 30.6951 30.8244 30.7951 30.9244C30.8617 30.9911 30.9284 31.0577 30.9951 31.1244C30.9951 31.2244 31.0951 31.2244 31.0951 31.3244C31.0951 31.4244 31.1951 31.5244 31.1951 31.5244V31.9244C31.1951 31.9244 31.1951 32.1244 31.0951 32.1244C31.0951 32.2244 30.9951 32.2244 30.9951 32.3244C30.9951 32.4244 30.8951 32.4244 30.7951 32.5244C30.7284 32.5911 30.6617 32.6577 30.5951 32.7244C30.4951 32.7244 30.4951 32.8244 30.3951 32.8244C30.2951 32.8244 30.1951 32.9244 30.1951 32.9244H29.8951Z" fill="#FBF9FF"/>
</svg>
