<svg width="60" height="60" viewBox="0 0 60 60" fill="none" xmlns="http://www.w3.org/2000/svg">
<path d="M30.0998 36.2474C28.5898 36.2474 27.2798 34.9374 27.2798 33.4274C27.2798 31.9174 28.5898 30.6074 30.0998 30.6074C31.6098 30.6074 32.9198 31.9174 32.9198 33.4274C32.9198 34.9374 31.6098 36.2474 30.0998 36.2474ZM30.0998 33.1174C29.8998 33.1174 29.7998 33.2174 29.7998 33.4174C29.7998 33.6174 29.8998 33.7174 30.0998 33.7174C30.2998 33.7174 30.3998 33.6174 30.3998 33.4174C30.3998 33.2174 30.2998 33.1174 30.0998 33.1174Z" fill="#FBF9FF"/>
<path d="M30.0998 37.7573C29.3898 37.7573 28.7898 37.1573 28.7898 36.4473V34.8373C28.7898 34.1273 29.3898 33.5273 30.0998 33.5273C30.8098 33.5273 31.4098 34.1273 31.4098 34.8373V36.4473C31.4098 37.2573 30.8098 37.7573 30.0998 37.7573Z" fill="#FBF9FF"/>
<path d="M35.8498 27.3784H24.3598C23.6498 27.3784 23.0498 26.7784 23.0498 26.0684V24.4584C23.0498 20.6284 26.1798 17.3984 30.1098 17.3984C31.7198 17.3984 33.3398 17.9984 34.6498 19.0084C36.2598 20.3184 37.1698 22.3384 37.1698 24.3484V26.0584C37.1698 26.7684 36.5598 27.3684 35.8598 27.3684L35.8498 27.3784ZM25.5698 24.8584H34.6398V24.5584C34.6398 23.2484 34.0398 21.9384 33.0298 21.1284C32.2198 20.4184 31.2198 20.1184 30.1098 20.1184C27.5898 20.0184 25.5698 22.0384 25.5698 24.5584V24.8584Z" fill="#FBF9FF"/>
<path d="M30.0998 41.488C24.7598 41.488 20.5198 37.148 20.5198 31.908V26.058C20.5198 25.348 21.1198 24.748 21.8298 24.748H38.5698C39.2798 24.748 39.8798 25.348 39.8798 26.058V31.808C39.8798 35.538 37.8598 38.768 34.5398 40.478C33.0298 41.078 31.6198 41.488 30.0998 41.488ZM23.0398 27.368V31.908C23.0398 35.838 26.2698 38.968 30.0998 38.968C31.2098 38.968 32.2198 38.768 33.2298 38.258C35.6498 37.048 37.1598 34.628 37.1598 31.908V27.368H23.0398Z" fill="#FBF9FF"/>
<path d="M35.8499 57.8277H24.3599C24.0599 57.8277 23.6499 57.7277 23.4499 57.4277C22.4399 56.4177 21.4299 55.4077 20.5299 54.5077C13.4699 47.3477 9.93992 43.8177 8.12992 38.3777C6.41992 33.1377 6.41992 26.2777 6.41992 12.7677V7.92767C6.41992 7.52767 6.61992 7.21767 6.91992 6.91767C7.21992 6.71767 7.62992 6.61767 7.92992 6.61767C15.7899 8.02767 22.9499 6.61767 29.4099 2.38767C29.9099 2.08767 30.5199 2.08767 30.9199 2.48767C35.8599 6.61767 42.8199 7.92767 52.2899 6.61767C52.6899 6.51767 52.9999 6.71767 53.2999 6.91767C53.5999 7.11767 53.6999 7.51767 53.6999 7.82767V14.3777C53.6999 26.9777 53.7999 33.3277 52.0899 38.2677C50.3799 43.3077 47.1499 46.6377 40.6999 53.2877C39.4899 54.4977 38.1799 55.9077 36.7699 57.4177C36.5699 57.7177 36.2699 57.8177 35.8599 57.8177L35.8499 57.8277ZM24.9599 55.3077H35.3399C36.6499 53.9977 37.8599 52.6877 38.9699 51.5777C45.2199 45.1277 48.3499 41.9977 49.7599 37.4577C51.2699 32.9177 51.2699 26.6677 51.2699 14.3677V9.22767C47.0399 9.72767 43.0999 9.62767 39.7799 9.02767C36.0499 8.31767 32.8199 6.90767 30.0999 4.89767C25.0599 8.02767 19.6099 9.63767 13.8699 9.63767C12.2599 9.63767 10.6399 9.53767 9.02992 9.33767V12.7677C9.02992 26.0777 9.02992 32.7277 10.6399 37.6677C12.2499 42.5077 15.6799 45.9377 22.4399 52.7877C23.1499 53.4977 24.0499 54.3977 24.9599 55.3077Z" fill="#FBF9FF"/>
<path d="M34.3398 50.268C34.0398 50.268 33.7398 50.168 33.4298 49.968C32.9298 49.468 32.9298 48.658 33.4298 48.158C34.2398 47.248 35.0398 46.448 35.7498 45.738C40.2898 40.998 42.6098 38.678 43.6098 35.558C44.7198 32.328 44.7198 28.098 44.6198 19.628V15.598C38.3698 16.308 33.5298 15.298 29.8998 12.578C25.0598 15.498 19.6198 16.508 13.7698 15.398C13.0598 15.298 12.6598 14.588 12.7598 13.888C12.8598 13.178 13.5698 12.778 14.2698 12.878C19.7098 13.888 24.7598 12.878 29.2898 9.95798C29.7898 9.65798 30.3998 9.65798 30.7998 10.058C34.2298 12.878 39.0698 13.888 45.7198 12.878C46.1198 12.778 46.4298 12.978 46.7298 13.178C47.0298 13.378 47.1298 13.788 47.1298 14.088V19.528C47.2298 37.168 47.1298 37.478 37.4498 47.458C36.7398 48.168 35.9398 48.968 35.1298 49.878C35.0298 50.178 34.7298 50.278 34.3198 50.278L34.3398 50.268Z" fill="#FBF9FF"/>
<path d="M55.8099 57.827H4.18988C3.47988 57.827 2.87988 57.227 2.87988 56.517C2.87988 55.807 3.47988 55.207 4.18988 55.207H55.8099C56.5199 55.207 57.1199 55.807 57.1199 56.517C57.1199 57.227 56.5199 57.827 55.8099 57.827Z" fill="#FBF9FF"/>
<path d="M49.5599 52.788H40.6899C39.9799 52.788 39.3799 52.188 39.3799 51.478C39.3799 50.768 39.9799 50.168 40.6899 50.168H49.5599C50.2699 50.168 50.8699 50.768 50.8699 51.478C50.7699 52.188 50.1599 52.788 49.5599 52.788Z" fill="#FBF9FF"/>
<path d="M19.3099 52.788H10.4399C9.72988 52.788 9.12988 52.188 9.12988 51.478C9.12988 50.768 9.72988 50.168 10.4399 50.168H19.3099C20.0199 50.168 20.6199 50.768 20.6199 51.478C20.5199 52.188 19.9099 52.788 19.3099 52.788Z" fill="#FBF9FF"/>
</svg>
