<svg width="62" height="60" viewBox="0 0 62 60" fill="none" xmlns="http://www.w3.org/2000/svg">
<path d="M33.2999 29.1998C32.3999 28.7998 31.4999 28.5998 31.3999 28.5998V26.4998C31.6999 26.4998 31.9999 26.5998 32.1999 26.6998C32.5999 26.7998 33.0999 27.0998 33.4999 27.2998C33.5999 27.3998 33.6999 27.4998 33.7999 27.4998L34.8999 25.3998C34.4999 25.1998 33.9999 24.8998 33.3999 24.6998C32.7999 24.4998 32.1999 24.2998 31.4999 24.2998V22.7998H30.3999V24.2998C28.9999 24.3998 27.7999 25.0998 27.1999 26.3998C26.9999 26.7998 26.8999 27.2998 26.8999 27.7998C26.8999 28.8998 27.3999 29.6998 28.4999 30.2998C29.2999 30.6998 30.1999 30.8998 30.4999 30.9998V32.9998C30.0999 32.8998 29.7999 32.8998 29.3999 32.6998C28.8999 32.4998 28.1999 32.2998 27.7999 31.9998C27.5999 31.8998 27.4999 31.7998 27.4999 31.6998L26.5999 33.8998C27.6999 34.6998 29.1999 35.0998 30.4999 35.1998V36.9998H31.5999V35.1998C32.0999 35.1998 32.5999 35.0998 32.9999 34.9998C33.8999 34.6998 34.5999 34.1998 34.9999 33.3998C35.3999 32.5998 35.3999 31.3998 35.0999 30.5998C34.6999 30.0998 34.1999 29.5998 33.2999 29.1998ZM30.6999 28.3998C30.2999 28.2998 30.0999 28.1998 29.8999 27.9998C29.6999 27.8998 29.5999 27.6998 29.5999 27.3998C29.5999 26.8998 29.9999 26.5998 30.6999 26.4998V28.3998ZM31.3999 32.9998V31.1998C31.7999 31.2998 31.9999 31.4998 32.2999 31.5998C32.4999 31.6998 32.5999 31.9998 32.5999 32.1998C32.5999 32.6998 32.1999 32.9998 31.3999 32.9998Z" fill="#FBF9FF"/>
<path d="M30.8999 18.7002C24.6999 18.7002 19.5999 23.7002 19.5999 30.0002C19.5999 36.3002 24.5999 41.3002 30.8999 41.3002C37.1999 41.3002 42.1999 36.3002 42.1999 30.0002C42.1999 23.7002 37.0999 18.7002 30.8999 18.7002ZM30.8999 38.7002C26.0999 38.7002 22.0999 34.8002 22.0999 29.9002C22.0999 25.0002 25.9999 21.1002 30.8999 21.1002C35.7999 21.1002 39.6999 25.0002 39.6999 29.9002C39.6999 34.8002 35.6999 38.7002 30.8999 38.7002Z" fill="#FBF9FF"/>
<path d="M50.5998 33.1997C50.0998 36.0997 48.9998 38.7997 47.3998 41.1997C46.7998 41.9997 47.3998 43.1997 48.3998 43.1997C48.7998 43.1997 49.1998 42.9997 49.3998 42.6997C51.2998 39.9997 52.4998 36.9997 52.9998 33.6997C53.0998 32.9997 52.6998 32.3997 51.9998 32.2997C51.3998 32.0997 50.6998 32.5997 50.5998 33.1997Z" fill="#FBF9FF"/>
<path d="M42.2 46.4002C39.8 48.1002 37.1 49.2002 34.2 49.6002C33.5 49.7002 33.1 50.4002 33.2 51.0002C33.3 51.7002 34 52.1002 34.6 52.0002C37.8 51.5002 40.9 50.2002 43.6 48.4002C44.2 48.0002 44.3 47.2002 43.9 46.7002C43.6 46.1002 42.8 46.0002 42.2 46.4002Z" fill="#FBF9FF"/>
<path d="M11.1999 26.5998C11.6999 23.5998 12.8999 20.6998 14.7999 18.1998C15.1999 17.5998 15.0999 16.8998 14.4999 16.4998C13.8999 16.0998 13.1999 16.1998 12.7999 16.7998C10.7999 19.5998 9.39987 22.8998 8.79987 26.2998C8.69987 26.9998 9.09987 27.5998 9.79987 27.6998C10.3999 27.6998 11.0999 27.2998 11.1999 26.5998Z" fill="#FBF9FF"/>
<path d="M19.0998 13.6998C21.5998 11.8998 24.4998 10.6998 27.4998 10.0998C28.1998 9.99978 28.5998 9.29978 28.4998 8.69978C28.3998 7.99978 27.6998 7.59978 27.0998 7.69978C23.6998 8.29978 20.3998 9.69978 17.5998 11.6998C16.9998 12.0998 16.8998 12.8998 17.2998 13.3998C17.7998 13.9998 18.5998 14.1998 19.0998 13.6998Z" fill="#FBF9FF"/>
<path d="M25.8999 28.7002H23.3999V31.2002H25.8999V28.7002Z" fill="#FBF9FF"/>
<path d="M38.3999 28.7002H35.8999V31.2002H38.3999V28.7002Z" fill="#FBF9FF"/>
<path d="M57.1999 26.2C55.5999 26.2 54.1999 27.2 53.6999 28.7H49.6999C49.3999 24.5 47.6999 20.6 45.0999 17.6L47.8999 14.8C49.2999 15.5 50.9999 15.2 52.1999 14.1C53.6999 12.6 53.6999 10.3 52.1999 8.8C51.4999 8.1 50.5999 7.7 49.4999 7.7C47.3999 7.7 45.6999 9.4 45.6999 11.5C45.6999 12.1 45.7999 12.6 46.0999 13.1L43.2999 15.9C40.2999 13.3 36.3999 11.6 32.1999 11.3V7.3C33.6999 6.8 34.6999 5.4 34.6999 3.8C34.6999 1.7 32.9999 0 30.8999 0C28.7999 0 27.0999 1.7 27.0999 3.8C27.0999 5.4 28.0999 6.8 29.5999 7.3V11.3C25.3999 11.6 21.4999 13.3 18.4999 15.9L15.6999 13.1C16.3999 11.7 16.0999 10 14.9999 8.8C13.4999 7.3 11.1999 7.3 9.6999 8.8C8.1999 10.3 8.1999 12.6 9.6999 14.1C10.8999 15.3 12.5999 15.5 13.9999 14.8L16.7999 17.6C14.1999 20.6 12.4999 24.5 12.1999 28.7H8.1999C7.6999 27.2 6.2999 26.2 4.6999 26.2C2.5999 26.2 0.899902 27.9 0.899902 30C0.899902 32.1 2.5999 33.8 4.6999 33.8C6.2999 33.8 7.6999 32.8 8.1999 31.3H12.1999C12.4999 35.5 14.1999 39.4 16.7999 42.4L13.9999 45.2C12.5999 44.5 10.8999 44.8 9.6999 45.9C8.1999 47.4 8.1999 49.7 9.6999 51.2C10.3999 51.9 11.2999 52.3 12.3999 52.3C15.1999 52.3 16.9999 49.4 15.7999 46.9L18.5999 44.1C21.5999 46.7 25.4999 48.4 29.6999 48.7V52.7C28.1999 53.2 27.1999 54.6 27.1999 56.2C27.1999 58.3 28.8999 60 30.9999 60C33.0999 60 34.7999 58.3 34.7999 56.2C34.7999 54.6 33.7999 53.2 32.2999 52.7V48.7C36.4999 48.4 40.3999 46.7 43.3999 44.1L46.1999 46.9C44.9999 49.4 46.7999 52.3 49.5999 52.3C50.5999 52.3 51.4999 51.9 52.2999 51.2C53.7999 49.7 53.7999 47.4 52.2999 45.9C51.0999 44.7 49.3999 44.5 47.9999 45.2L45.1999 42.4C47.7999 39.4 49.4999 35.5 49.7999 31.3H53.7999C54.2999 32.8 55.6999 33.8 57.2999 33.8C59.3999 33.8 61.0999 32.1 61.0999 30C61.0999 27.9 59.1999 26.2 57.1999 26.2ZM49.4999 10.1C49.7999 10.1 50.0999 10.2 50.3999 10.5C50.8999 11 50.8999 11.8 50.3999 12.3C50.1999 12.5 49.8999 12.7 49.4999 12.7C48.7999 12.7 48.1999 12.1 48.1999 11.5C48.1999 10.6 48.7999 10.1 49.4999 10.1ZM30.8999 2.4C31.5999 2.4 32.1999 3 32.1999 3.7C32.1999 4.4 31.5999 5 30.8999 5C30.1999 5 29.5999 4.4 29.5999 3.7C29.6999 3 30.1999 2.4 30.8999 2.4ZM11.4999 12.2C10.9999 11.7 10.9999 10.9 11.4999 10.4C11.9999 9.9 12.7999 9.9 13.2999 10.4C13.7999 10.9 13.7999 11.7 13.2999 12.2C13.2999 12.2 12.9999 12.6 12.3999 12.6C11.9999 12.6 11.6999 12.5 11.4999 12.2ZM4.6999 31.2C3.9999 31.2 3.3999 30.6 3.3999 29.9C3.3999 29.2 3.9999 28.6 4.6999 28.6C5.3999 28.6 5.8999 29.2 5.8999 29.9C5.8999 30.6 5.2999 31.2 4.6999 31.2ZM13.1999 49.3C12.6999 49.8 11.8999 49.8 11.3999 49.3C10.8999 48.8 10.8999 48 11.3999 47.5C11.8999 47 12.6999 47 13.1999 47.5C13.6999 48.1 13.6999 48.9 13.1999 49.3ZM30.8999 57.4C30.1999 57.4 29.5999 56.8 29.5999 56.1C29.5999 55.4 30.1999 54.8 30.8999 54.8C31.5999 54.8 32.1999 55.4 32.1999 56.1C32.1999 56.8 31.5999 57.4 30.8999 57.4ZM50.2999 47.6C50.7999 48.1 50.7999 48.9 50.2999 49.4C49.7999 49.9 48.9999 49.9 48.4999 49.4C47.9999 48.9 47.9999 48.1 48.4999 47.6C48.6999 47.4 48.9999 47.2 49.3999 47.2C49.7999 47.2 50.0999 47.3 50.2999 47.6ZM43.1999 40.5L42.3999 39.7C41.8999 39.2 41.0999 39.2 40.5999 39.7C40.0999 40.2 40.0999 41 40.5999 41.5L41.3999 42.3C38.8999 44.5 35.5999 45.9 32.0999 46.2V44.9C32.0999 44.2 31.4999 43.6 30.7999 43.6C30.0999 43.6 29.4999 44.2 29.4999 44.9V46.1C25.9999 45.8 22.6999 44.4 20.1999 42.2L20.9999 41.4C21.4999 40.9 21.4999 40.1 20.9999 39.6C20.4999 39.1 19.6999 39.1 19.1999 39.6L18.3999 40.4C16.1999 37.9 14.7999 34.6 14.4999 31.1H15.8999C16.5999 31.1 17.1999 30.5 17.1999 29.8C17.1999 29.1 16.5999 28.5 15.8999 28.5H14.6999C14.9999 25 16.3999 21.7 18.5999 19.2L19.3999 20C19.8999 20.5 20.6999 20.5 21.1999 20C21.6999 19.5 21.6999 18.7 21.1999 18.2L20.3999 17.4C22.8999 15.2 26.1999 13.8 29.6999 13.5V14.9C29.6999 15.6 30.2999 16.2 30.9999 16.2C31.6999 16.2 32.2999 15.6 32.2999 14.9V13.7C35.7999 14 39.0999 15.4 41.5999 17.6L40.7999 18.4C40.2999 18.9 40.2999 19.7 40.7999 20.2C41.2999 20.7 42.0999 20.7 42.5999 20.2L43.3999 19.4C45.5999 21.9 46.9999 25.2 47.2999 28.7H45.8999C45.1999 28.7 44.5999 29.3 44.5999 30C44.5999 30.7 45.1999 31.3 45.8999 31.3H47.0999C46.7999 34.7 45.3999 37.9 43.1999 40.5ZM57.1999 31.2C56.4999 31.2 55.8999 30.6 55.8999 29.9C55.8999 29.2 56.4999 28.6 57.1999 28.6C57.8999 28.6 58.4999 29.2 58.4999 29.9C58.4999 30.6 57.7999 31.2 57.1999 31.2Z" fill="#FBF9FF"/>
</svg>
