<svg width="62" height="60" viewBox="0 0 62 60" fill="none" xmlns="http://www.w3.org/2000/svg">
<path d="M35.5147 22.1568C37.299 20.7843 38.4852 18.6274 38.4852 16.1765C38.4852 12.0589 35.1127 8.72559 30.9461 8.72559C26.7795 8.72559 23.407 12.0589 23.407 16.1765C23.407 18.6274 24.5933 20.7843 26.3873 22.1568C22.4168 23.9215 19.6423 27.843 19.6423 32.4508V42.4506C19.6423 43.1369 20.2404 43.7251 20.9266 43.7251H24.6913V58.7249C24.6913 59.4112 25.2893 59.9994 25.9756 59.9994C26.6618 59.9994 27.2697 59.4112 27.2697 58.7249V38.6272C27.2697 37.9409 26.6717 37.3527 25.9756 37.3527C25.2795 37.3527 24.6913 37.9409 24.6913 38.6272V41.1761H22.2109V32.3527C22.2109 27.5489 26.1815 23.6274 31.0343 23.6274C35.8872 23.6274 39.8578 27.5489 39.8578 32.3527V41.1761H37.3774V38.7252C37.3774 38.0389 36.7794 37.4507 36.0833 37.4507C35.3872 37.4507 34.799 38.0389 34.799 38.7252V58.7249C34.799 59.4112 35.397 59.9994 36.0833 59.9994C36.7696 59.9994 37.3774 59.4112 37.3774 58.7249V43.6271H41.142C41.8381 43.6271 42.4362 43.0389 42.4362 42.3526V32.3527C42.3381 27.843 39.5636 23.8234 35.4951 22.1568H35.5147ZM25.8972 16.1765C25.8972 13.4314 28.1814 11.1765 30.9559 11.1765C33.7304 11.1765 36.0147 13.4314 36.0147 16.1765C36.0147 18.9215 33.7304 21.1764 30.9559 21.1764C28.1814 21.1764 25.8972 18.9215 25.8972 16.1765Z" fill="#FBF9FF"/>
<path d="M30.946 47.3516C30.2499 47.3516 29.6519 47.9398 29.6519 48.6261V58.6259C29.6519 59.3122 30.2499 59.9004 30.946 59.9004C31.642 59.9004 32.2303 59.3122 32.2303 58.6259V48.6261C32.2303 47.9398 31.6322 47.3516 30.946 47.3516Z" fill="#FBF9FF"/>
<path d="M17.0641 14.9018C21.2307 14.9018 24.6032 11.5685 24.6032 7.45088C24.6032 3.33329 21.2307 0 17.0641 0C12.8975 0 9.52498 3.33329 9.52498 7.45088C9.42694 11.5685 12.8975 14.9018 17.0641 14.9018ZM17.0641 2.45095C19.8386 2.45095 22.1229 4.70582 22.1229 7.45088C22.1229 10.1959 19.8386 12.4508 17.0641 12.4508C14.2896 12.4508 12.0053 10.1959 12.0053 7.45088C12.0053 4.70582 14.2896 2.45095 17.0641 2.45095Z" fill="#FBF9FF"/>
<path d="M44.8382 14.9018C49.0048 14.9018 52.3773 11.5685 52.3773 7.45088C52.3773 3.33329 49.0048 0 44.8382 0C40.6716 0 37.2991 3.33329 37.2991 7.45088C37.2991 11.5685 40.6716 14.9018 44.8382 14.9018ZM44.8382 2.45095C47.6127 2.45095 49.8969 4.70582 49.8969 7.45088C49.8969 10.1959 47.6127 12.4508 44.8382 12.4508C42.0637 12.4508 39.7794 10.1959 39.7794 7.45088C39.7794 4.70582 42.0637 2.45095 44.8382 2.45095Z" fill="#FBF9FF"/>
<path d="M15.1815 39.9014C14.4854 39.9014 13.8972 40.4896 13.8972 41.1759V58.6266C13.8972 59.3129 14.4952 59.9011 15.1815 59.9011C15.8678 59.9011 16.4756 59.3129 16.4756 58.6266V41.1759C16.3776 40.4896 15.8776 39.9014 15.1815 39.9014Z" fill="#FBF9FF"/>
<path d="M10.7206 48.626C10.0245 48.626 9.42651 49.2142 9.42651 49.9005V58.6258C9.42651 59.3121 10.0245 59.9003 10.7206 59.9003C11.4167 59.9003 12.0147 59.3121 12.0147 58.6258V49.9005C12.0147 49.2142 11.4167 48.626 10.7206 48.626Z" fill="#FBF9FF"/>
<path d="M10.7209 14.7051C6.95624 14.7051 3.97588 17.7443 3.97588 21.4697C3.97588 23.5285 4.96607 25.3912 6.45624 26.6657C3.08374 28.2343 0.701416 31.7637 0.701416 35.6852V44.4106C0.701416 45.0968 1.29945 45.6851 1.98571 45.6851H5.16214V58.6261C5.16214 59.3123 5.76017 59.9006 6.45624 59.9006C7.15231 59.9006 7.74054 59.3123 7.74054 58.6261V41.1753C7.74054 40.4891 7.14251 39.9008 6.45624 39.9008C5.76998 39.9008 5.16214 40.4891 5.16214 41.1753V43.1361H3.27981V35.6852C3.27981 31.5676 6.65232 28.2343 10.8189 28.2343C14.5836 28.2343 17.662 25.1951 17.662 21.5677C17.5639 17.7443 14.4855 14.7051 10.7209 14.7051ZM10.7209 25.6853C8.33857 25.6853 6.45624 23.8226 6.45624 21.4697C6.45624 19.1168 8.33857 17.2541 10.7209 17.2541C13.1032 17.2541 14.9855 19.1168 14.9855 21.4697C14.9855 23.8226 13.1032 25.6853 10.7209 25.6853Z" fill="#FBF9FF"/>
<path d="M55.4459 26.6653C56.9361 25.3908 57.9263 23.5281 57.9263 21.4693C57.9263 17.7439 54.8479 14.8027 51.1813 14.8027C47.5147 14.8027 44.4363 17.8419 44.4363 21.4693C44.4363 25.0967 47.5147 28.1359 51.1813 28.1359C55.3479 28.1359 58.7204 31.4692 58.7204 35.5868V43.1357H56.8381V41.1749C56.8381 40.4887 56.24 39.9004 55.544 39.9004C54.8479 39.9004 54.2597 40.4887 54.2597 41.1749V58.6257C54.2597 59.312 54.8577 59.9002 55.544 59.9002C56.2302 59.9002 56.8381 59.312 56.8381 58.6257V45.6847H60.0145C60.7106 45.6847 61.2988 45.0965 61.2988 44.4102V35.6848C61.2988 31.6653 58.9165 28.2339 55.4459 26.6653ZM46.9166 21.4693C46.9166 19.1164 48.799 17.2537 51.1813 17.2537C53.5636 17.2537 55.4459 19.1164 55.4459 21.4693C55.4459 23.8222 53.5636 25.6849 51.1813 25.6849C48.799 25.6849 46.9166 23.8222 46.9166 21.4693Z" fill="#FBF9FF"/>
<path d="M46.7204 39.9014C46.0243 39.9014 45.4263 40.4896 45.4263 41.1759V58.6266C45.4263 59.3129 46.0243 59.9011 46.7204 59.9011C47.4164 59.9011 48.0145 59.3129 48.0145 58.6266V41.1759C48.0145 40.4896 47.4164 39.9014 46.7204 39.9014Z" fill="#FBF9FF"/>
<path d="M51.181 48.626C50.485 48.626 49.8967 49.2142 49.8967 49.9005V58.6258C49.8967 59.3121 50.4948 59.9003 51.181 59.9003C51.8673 59.9003 52.4751 59.3121 52.4751 58.6258V49.9005C52.4751 49.2142 51.8771 48.626 51.181 48.626Z" fill="#FBF9FF"/>
</svg>
