<svg width="60" height="60" viewBox="0 0 60 60" fill="none" xmlns="http://www.w3.org/2000/svg">
<path d="M19.2651 29.9052V25.3652H20.2751V28.9952H22.7951V29.9052H19.2651Z" fill="#FBF9FF"/>
<path d="M25.3151 29.9037C25.0151 29.9037 24.7051 29.8037 24.4051 29.7037C24.1051 29.6037 23.9051 29.4037 23.7051 29.2037C23.5051 29.0037 23.4051 28.7037 23.2051 28.4937C23.1051 28.1937 23.0051 27.8937 23.0051 27.5837C23.0051 27.2737 23.1051 26.9737 23.2051 26.6737C23.3051 26.3737 23.5051 26.1737 23.7051 25.9637C23.9051 25.7637 24.1051 25.5637 24.4051 25.4637C24.7051 25.3637 25.0151 25.2637 25.3151 25.2637C25.6151 25.2637 25.9151 25.3637 26.2251 25.4637C26.5251 25.5637 26.7251 25.7637 26.9251 25.9637C27.1251 26.1637 27.2251 26.4637 27.4251 26.6737C27.5251 26.9737 27.6251 27.2837 27.6251 27.4837C27.6251 27.7837 27.5251 28.0837 27.4251 28.3937C27.3251 28.6937 27.1251 28.8937 26.9251 29.1037C26.7251 29.3037 26.5251 29.5037 26.2251 29.6037C25.9251 29.8037 25.6151 29.9037 25.3151 29.9037ZM24.1051 27.5837C24.1051 27.7837 24.1051 27.8837 24.2051 28.0837C24.3051 28.2837 24.3051 28.3837 24.4051 28.4837C24.5051 28.5837 24.6051 28.6837 24.8051 28.7837C24.9051 28.8837 25.1051 28.8837 25.3051 28.8837C25.5051 28.8837 25.7051 28.8837 25.8051 28.7837C25.9051 28.6837 26.1051 28.5837 26.2051 28.4837C26.3051 28.3837 26.4051 28.1837 26.4051 28.0837C26.4051 27.8837 26.5051 27.7837 26.5051 27.5837C26.5051 27.3837 26.5051 27.2837 26.4051 27.0837C26.3051 26.8837 26.3051 26.7837 26.2051 26.6837C26.1051 26.5837 26.0051 26.4837 25.8051 26.3837C25.7051 26.2837 25.5051 26.2837 25.3051 26.2837C25.1051 26.2837 24.9051 26.2837 24.8051 26.3837C24.7051 26.4837 24.5051 26.5837 24.4051 26.6837C24.3051 26.7837 24.2051 26.9837 24.2051 27.0837C24.1051 27.2837 24.1051 27.3837 24.1051 27.5837Z" fill="#FBF9FF"/>
<path d="M31.9652 29.3939C31.6652 29.6939 31.2552 29.8939 30.7552 29.8939C30.4552 29.8939 30.1452 29.7939 29.9452 29.6939C29.6452 29.5939 29.4452 29.3939 29.2352 29.1939C29.0352 28.9939 28.8352 28.7939 28.7352 28.4839C28.6352 28.1839 28.5352 27.8839 28.5352 27.5739C28.5352 27.2639 28.6352 26.9639 28.7352 26.6639C28.8352 26.3639 29.0352 26.1639 29.2352 25.9539C29.4352 25.7539 29.6352 25.5539 29.9452 25.4539C30.2452 25.3539 30.5452 25.2539 30.8552 25.2539C31.2552 25.2539 31.6652 25.3539 31.9652 25.5539C32.2652 25.7539 32.4652 25.9539 32.6752 26.2639L31.8652 26.8639C31.7652 26.6639 31.6652 26.4639 31.4652 26.3639C31.2652 26.2639 31.0652 26.1639 30.8652 26.1639C30.6652 26.1639 30.5652 26.1639 30.3652 26.2639C30.2652 26.3639 30.0652 26.4639 29.9652 26.5639C29.8652 26.6639 29.7652 26.8639 29.7652 26.9639C29.6652 27.1639 29.6652 27.2639 29.6652 27.4639C29.6652 27.6639 29.6652 27.8639 29.7652 27.9639C29.8652 28.1639 29.8652 28.2639 29.9652 28.3639C30.0652 28.4639 30.1652 28.5639 30.3652 28.6639C30.4652 28.7639 30.6652 28.7639 30.8652 28.7639C31.2652 28.7639 31.6752 28.5639 31.9752 28.1539V28.0539H31.0652V27.2439H32.7752V29.6639H31.9652V29.3639V29.3939Z" fill="#FBF9FF"/>
<path d="M34.385 29.9052V25.3652H35.395V29.9052H34.385Z" fill="#FBF9FF"/>
<path d="M37.7151 27.2735V29.8935H36.7051V25.3535H37.5151L39.6351 27.9735V25.3535H40.6451V29.8935H39.8351L37.7151 27.2735Z" fill="#FBF9FF"/>
<path d="M56.4651 58.9345H3.5351C2.8251 58.9345 2.2251 58.3345 2.2251 57.6245V2.37445C2.2251 1.66445 2.8351 1.06445 3.5351 1.06445H56.4651C57.1751 1.06445 57.7751 1.66445 57.7751 2.37445V57.6245C57.6751 58.3345 57.0651 58.9345 56.4651 58.9345ZM4.7451 56.4145H55.1551V3.68445H4.7451V56.4145Z" fill="#FBF9FF"/>
<path d="M56.4651 13.8645H3.5351C2.8251 13.8645 2.2251 13.2645 2.2251 12.5545V2.37445C2.2251 1.66445 2.8351 1.06445 3.5351 1.06445H56.4651C57.1751 1.06445 57.7751 1.66445 57.7751 2.37445V12.6545C57.6751 13.3645 57.0651 13.8645 56.4651 13.8645ZM4.7451 11.3445H55.1551V3.58445H4.7451V11.3445Z" fill="#FBF9FF"/>
<path d="M14.725 13.8645C14.015 13.8645 13.415 13.2645 13.415 12.5545V2.37445C13.415 1.66445 14.025 1.06445 14.725 1.06445C15.425 1.06445 16.035 1.66445 16.035 2.37445V12.6545C16.035 13.3645 15.435 13.8645 14.725 13.8645Z" fill="#FBF9FF"/>
<path d="M51.4251 54.0936H8.57514C7.86514 54.0936 7.26514 53.4936 7.26514 52.7836V17.4936C7.26514 16.7836 7.87514 16.1836 8.57514 16.1836H51.4251C52.1351 16.1836 52.7351 16.7836 52.7351 17.4936V52.7836C52.6351 53.4936 52.0251 54.0936 51.4251 54.0936ZM9.78514 51.5736H50.1151V18.8136H9.78514V51.5836V51.5736Z" fill="#FBF9FF"/>
<path d="M21.175 6.20508H18.655V8.72508H21.175V6.20508Z" fill="#FBF9FF"/>
<path d="M26.2251 6.20508H23.7051V8.72508H26.2251V6.20508Z" fill="#FBF9FF"/>
<path d="M31.2651 6.20508H28.7451V8.72508H31.2651V6.20508Z" fill="#FBF9FF"/>
<path d="M46.3852 33.9344H13.6152C12.9052 33.9344 12.3052 33.3244 12.3052 32.6244V22.5444C12.3052 21.8344 12.9152 21.2344 13.6152 21.2344H46.3852C47.0952 21.2344 47.6952 21.8344 47.6952 22.5444V32.6244C47.5952 33.3344 46.9852 33.9344 46.3852 33.9344ZM14.8252 31.4144H45.0752V23.8544H14.8252V31.4144Z" fill="#FBF9FF"/>
<path d="M46.3852 49.0535H13.6152C12.9052 49.0535 12.3052 48.4535 12.3052 47.7435V37.6635C12.3052 36.9535 12.9152 36.3535 13.6152 36.3535H46.3852C47.0952 36.3535 47.6952 36.9535 47.6952 37.6635V47.7435C47.5952 48.4535 46.9852 49.0535 46.3852 49.0535ZM14.8252 46.5335H45.0752V38.9735H14.8252V46.5335Z" fill="#FBF9FF"/>
<path d="M17.6551 45.6236C17.3551 45.6236 17.0551 45.5236 16.7451 45.3236C16.2451 44.8236 16.2451 44.0136 16.7451 43.5136L19.8651 40.1836C20.3651 39.6836 21.1751 39.6836 21.6851 40.1836C22.1851 40.6836 22.1851 41.4936 21.6851 41.9936L18.5551 45.2236C18.3551 45.4236 17.9551 45.6236 17.6451 45.6236H17.6551Z" fill="#FBF9FF"/>
<path d="M20.875 45.5252C20.575 45.5252 20.265 45.4252 19.965 45.2252L16.635 42.1052C16.135 41.6052 16.135 40.7952 16.635 40.2852C17.135 39.7852 17.945 39.7852 18.445 40.2852L21.775 43.4152C22.275 43.9152 22.275 44.7252 21.775 45.2252C21.575 45.4252 21.175 45.5252 20.865 45.5252H20.875Z" fill="#FBF9FF"/>
<path d="M25.015 45.6236C24.715 45.6236 24.405 45.5236 24.105 45.3236C23.605 44.8236 23.605 44.0136 24.105 43.5136L27.225 40.1836C27.725 39.6836 28.535 39.6836 29.045 40.1836C29.545 40.6836 29.545 41.4936 29.045 41.9936L25.915 45.2236C25.615 45.4236 25.315 45.6236 25.005 45.6236H25.015Z" fill="#FBF9FF"/>
<path d="M28.2351 45.5252C27.9351 45.5252 27.6251 45.4252 27.3251 45.2252L23.9951 42.1052C23.4951 41.6052 23.4951 40.7952 23.9951 40.2852C24.4951 39.7852 25.3051 39.7852 25.8151 40.2852L29.1451 43.4152C29.6451 43.9152 29.6451 44.7252 29.1451 45.2252C28.8451 45.4252 28.5351 45.5252 28.2351 45.5252Z" fill="#FBF9FF"/>
<path d="M31.765 45.6236C31.465 45.6236 31.165 45.5236 30.855 45.3236C30.355 44.8236 30.355 44.0136 30.855 43.5136L33.975 40.1836C34.475 39.6836 35.285 39.6836 35.795 40.1836C36.305 40.6836 36.295 41.4936 35.795 41.9936L32.665 45.2236C32.465 45.4236 32.065 45.6236 31.755 45.6236H31.765Z" fill="#FBF9FF"/>
<path d="M34.9951 45.5252C34.6951 45.5252 34.3851 45.4252 34.0851 45.2252L30.7551 42.1052C30.2551 41.6052 30.2551 40.7952 30.7551 40.2852C31.2551 39.7852 32.0651 39.7852 32.5651 40.2852L35.8951 43.4152C36.3951 43.9152 36.3951 44.7252 35.8951 45.2252C35.6951 45.4252 35.2951 45.5252 34.9851 45.5252H34.9951Z" fill="#FBF9FF"/>
</svg>
