<svg width="60" height="60" viewBox="0 0 60 60" fill="none" xmlns="http://www.w3.org/2000/svg">
<path d="M17.8951 21.3346C15.4751 21.3346 13.4551 19.3146 13.4551 16.8946C13.4551 14.4746 15.4751 12.4546 17.8951 12.4546C20.3151 12.4546 22.3351 14.4746 22.3351 16.8946C22.3351 19.3146 20.3151 21.3346 17.8951 21.3346ZM17.8951 14.9846C16.8851 14.9846 15.9751 15.7946 15.9751 16.9046C15.9751 18.0146 16.7851 18.8246 17.8951 18.8246C19.0051 18.8246 19.8151 18.0146 19.8151 16.9046C19.8151 15.7946 18.9051 14.9846 17.8951 14.9846Z" fill="#FBF9FF"/>
<path d="M39.0751 57.8246H19.7151C19.3151 57.8246 18.905 57.6246 18.705 57.3246C18.505 57.0246 18.4051 56.6146 18.5051 56.2146L22.1351 44.1146C22.3351 43.6146 22.735 43.2046 23.345 43.2046H35.445C36.045 43.2046 36.455 43.6046 36.655 44.1146L40.285 56.2146C40.385 56.6146 40.285 57.0246 40.085 57.3246C39.885 57.6246 39.4851 57.8246 39.0751 57.8246ZM21.435 55.3046H37.3651L34.5451 45.7246H24.265L21.445 55.3046H21.435Z" fill="#FBF9FF"/>
<path d="M30.7052 39.7846C30.7052 40.4946 30.1052 41.0946 29.3952 41.0946C28.6852 41.0946 28.0852 40.4946 28.0852 39.7846C28.0852 39.0746 28.6852 38.4746 29.3952 38.4746C30.1052 38.4746 30.7052 39.0746 30.7052 39.7846Z" fill="#FBF9FF"/>
<path d="M45.125 57.8246H13.665C12.955 57.8246 12.355 57.2246 12.355 56.5146C12.355 55.8046 12.955 55.2046 13.665 55.2046H45.125C45.835 55.2046 46.435 55.8046 46.435 56.5146C46.335 57.2246 45.835 57.8246 45.125 57.8246Z" fill="#FBF9FF"/>
<path d="M11.2451 37.265H2.77509C2.06509 37.265 1.46509 36.655 1.46509 35.955C1.46509 35.255 2.06509 34.645 2.77509 34.645H11.2451C11.9551 34.645 12.4551 35.245 12.4551 35.955C12.4551 36.665 11.9551 37.265 11.2451 37.265Z" fill="#FBF9FF"/>
<path d="M57.2151 37.265H18.5051C17.7951 37.265 17.1951 36.655 17.1951 35.955C17.1951 35.255 17.7951 34.645 18.5051 34.645H57.2251C57.9351 34.645 58.5351 35.245 58.5351 35.955C58.5351 36.665 57.9351 37.265 57.2251 37.265H57.2151Z" fill="#FBF9FF"/>
<path d="M51.9751 37.265C51.2651 37.265 50.6651 36.655 50.6651 35.955V9.93504H9.12513V36.045C9.12513 36.755 8.52513 37.355 7.81513 37.355C7.10513 37.355 6.50513 36.745 6.50513 36.045V8.72504C6.50513 8.01504 7.10513 7.41504 7.81513 7.41504H51.9751C52.6851 7.41504 53.2851 8.01504 53.2851 8.72504V36.045C53.1851 36.755 52.5751 37.255 51.9751 37.255V37.265Z" fill="#FBF9FF"/>
<path d="M54.195 45.7348H5.80499C3.48499 45.7348 1.57499 43.8148 1.57499 41.5048V6.4048C1.56499 4.0948 3.48499 2.1748 5.80499 2.1748H54.195C56.515 2.1748 58.425 4.0948 58.425 6.4048V41.4948C58.425 43.8148 56.505 45.7248 54.195 45.7248V45.7348ZM5.80499 4.5948C4.89499 4.5948 4.09499 5.4048 4.09499 6.3048V41.3948C4.09499 42.3048 4.90499 43.1048 5.80499 43.1048H54.195C55.105 43.1048 55.905 42.2948 55.905 41.3948V6.4048C55.905 5.4948 55.095 4.6948 54.195 4.6948H5.80499V4.5948Z" fill="#FBF9FF"/>
<path d="M22.9452 28.8948H12.8652C12.1552 28.8948 11.5552 28.2948 11.5552 27.5848V25.0648C11.5552 21.6348 14.3752 18.7148 17.9052 18.7148C21.4352 18.7148 24.2552 21.5348 24.2552 25.0648V27.5848C24.2552 28.2948 23.6552 28.8948 22.9452 28.8948ZM14.1752 26.3748H21.7352V25.0648C21.7352 22.9448 20.0252 21.2348 17.9052 21.2348C15.7852 21.2348 14.0752 22.9448 14.0752 25.0648V26.3748H14.1752Z" fill="#FBF9FF"/>
<path d="M45.6251 20.0248H29.2951C28.5851 20.0248 27.9851 19.4248 27.9851 18.7148C27.9851 18.0048 28.5851 17.4048 29.2951 17.4048H45.6251C46.3351 17.4048 46.9351 18.0148 46.9351 18.7148C46.9351 19.4148 46.3351 20.0248 45.6251 20.0248Z" fill="#FBF9FF"/>
<path d="M45.6251 23.8549H29.2951C28.5851 23.8549 27.9851 23.2449 27.9851 22.5449C27.9851 21.8449 28.5851 21.2349 29.2951 21.2349H45.6251C46.3351 21.2349 46.9351 21.8349 46.9351 22.5449C46.9351 23.2549 46.3351 23.8549 45.6251 23.8549Z" fill="#FBF9FF"/>
<path d="M30.5051 26.375H27.9851V28.895H30.5051V26.375Z" fill="#FBF9FF"/>
<path d="M34.3352 26.375H31.8152V28.895H34.3352V26.375Z" fill="#FBF9FF"/>
<path d="M38.0652 26.375H35.5452V28.895H38.0652V26.375Z" fill="#FBF9FF"/>
<path d="M41.895 26.375H39.375V28.895H41.895V26.375Z" fill="#FBF9FF"/>
<path d="M45.625 26.375H43.105V28.895H45.625V26.375Z" fill="#FBF9FF"/>
</svg>
