<svg width="60" height="60" viewBox="0 0 60 60" fill="none" xmlns="http://www.w3.org/2000/svg">
<path d="M44.7017 26.2407H14.7017V28.7407H44.7017V26.2407Z" fill="#FBF9FF"/>
<path d="M19.7017 11.2407H17.2017V13.7407H19.7017V11.2407Z" fill="#FBF9FF"/>
<path d="M23.4019 8.74072H20.9019V11.2407H23.4019V8.74072Z" fill="#FBF9FF"/>
<path d="M27.2017 11.2407H24.7017V13.7407H27.2017V11.2407Z" fill="#FBF9FF"/>
<path d="M30.9019 4.94092H28.4019V7.44092H30.9019V4.94092Z" fill="#FBF9FF"/>
<path d="M34.7017 8.74072H32.2017V11.2407H34.7017V8.74072Z" fill="#FBF9FF"/>
<path d="M38.4019 12.4409H35.9019V14.9409H38.4019V12.4409Z" fill="#FBF9FF"/>
<path d="M42.2017 9.94092H39.7017V12.4409H42.2017V9.94092Z" fill="#FBF9FF"/>
<path d="M19.7017 14.9409H17.2017V24.9409H19.7017V14.9409Z" fill="#FBF9FF"/>
<path d="M23.4019 12.4409H20.9019V24.9409H23.4019V12.4409Z" fill="#FBF9FF"/>
<path d="M27.2017 14.9409H24.7017V24.9409H27.2017V14.9409Z" fill="#FBF9FF"/>
<path d="M30.9019 8.74072H28.4019V25.0407H30.9019V8.74072Z" fill="#FBF9FF"/>
<path d="M34.7017 12.4409H32.2017V24.9409H34.7017V12.4409Z" fill="#FBF9FF"/>
<path d="M38.4019 16.2407H35.9019V25.0407H38.4019V16.2407Z" fill="#FBF9FF"/>
<path d="M42.2017 13.7407H39.7017V25.0407H42.2017V13.7407Z" fill="#FBF9FF"/>
<path d="M47.0018 31.641L41.9018 33.941C38.4018 35.541 34.4018 35.541 30.8018 33.941C30.2018 33.741 27.6018 32.141 23.6018 32.141C17.6018 32.141 12.1018 35.741 9.70177 41.241L6.30177 48.941C6.00177 49.541 6.30177 50.341 6.90177 50.541L16.8018 54.941C17.4018 55.241 18.2018 54.941 18.5018 54.341L21.4018 47.741C22.1018 46.241 23.8018 45.541 25.3018 46.241C29.5018 48.141 34.3018 48.041 38.4018 46.241L50.9018 40.541C52.0018 40.041 52.8018 39.141 53.3018 38.141C55.3018 33.941 51.1018 29.741 47.0018 31.641ZM16.7018 52.141L9.10177 48.741L10.1018 46.441L17.7018 49.841L16.7018 52.141ZM50.0018 38.241L37.4018 43.941C33.9018 45.541 29.9018 45.541 26.3018 43.941C23.5018 42.741 20.3018 43.941 19.1018 46.741L18.7018 47.641L11.1018 44.241L11.9018 42.341C13.9018 37.741 18.5018 34.741 23.5018 34.741C26.9018 34.741 29.0018 36.041 29.7018 36.241C33.9018 38.141 38.7018 38.041 42.8018 36.241L48.0018 33.941C49.2018 33.441 50.4018 33.941 51.0018 34.841C51.8018 36.041 51.2018 37.641 50.0018 38.241Z" fill="#FBF9FF"/>
</svg>
