<svg width="60" height="60" viewBox="0 0 60 60" fill="none" xmlns="http://www.w3.org/2000/svg">
<path d="M52.0801 18.7048H1.67011C0.960107 18.7048 0.360107 18.1048 0.360107 17.3948V2.27484C0.360107 1.56484 0.960107 0.964844 1.67011 0.964844H52.0801C52.7901 0.964844 53.3901 1.56484 53.3901 2.27484V17.3948C53.3901 18.1048 52.7901 18.7048 52.0801 18.7048ZM2.98011 16.1848H50.8701V3.58484H2.98011V16.1848Z" fill="#FBF9FF"/>
<path d="M9.23015 13.6639C7.11015 13.6639 5.40015 11.9539 5.40015 9.83391C5.40015 7.71391 7.11015 6.00391 9.23015 6.00391C11.3501 6.00391 13.0601 7.71391 13.0601 9.83391C13.0601 11.9539 11.3501 13.6639 9.23015 13.6639ZM9.23015 8.62391C8.52015 8.62391 7.92015 9.22391 7.92015 9.93391C7.92015 10.6439 8.53015 11.2439 9.23015 11.2439C9.93015 11.2439 10.5401 10.6439 10.5401 9.93391C10.5401 9.12391 9.94015 8.62391 9.23015 8.62391Z" fill="#FBF9FF"/>
<path d="M19.3102 13.6639C17.1902 13.6639 15.4802 11.9539 15.4802 9.83391C15.4802 7.71391 17.1902 6.00391 19.3102 6.00391C21.4302 6.00391 23.1402 7.71391 23.1402 9.83391C23.1402 11.9539 21.4302 13.6639 19.3102 13.6639ZM19.3102 8.62391C18.6002 8.62391 18.0002 9.22391 18.0002 9.93391C18.0002 10.6439 18.6102 11.2439 19.3102 11.2439C20.0102 11.2439 20.6202 10.6439 20.6202 9.93391C20.6202 9.12391 20.0102 8.62391 19.3102 8.62391Z" fill="#FBF9FF"/>
<path d="M47.0401 51.8854C45.2301 51.8854 43.6101 50.3754 43.6101 48.4554C43.6101 46.5354 45.1201 45.0254 47.0401 45.0254C48.8501 45.0254 50.4701 46.5354 50.4701 48.4554C50.4701 50.3754 48.9601 51.8854 47.0401 51.8854ZM47.0401 47.6554C46.5401 47.6554 46.1301 48.0554 46.1301 48.5654C46.1301 49.0754 46.5301 49.4754 47.0401 49.4754C47.5501 49.4754 47.9501 49.0754 47.9501 48.5654C47.9501 48.0554 47.5501 47.6554 47.0401 47.6554Z" fill="#FBF9FF"/>
<path d="M47.0402 53.9939C46.3302 53.9939 45.7302 53.3839 45.7302 52.6839V50.5639C45.7302 49.8539 46.3302 49.2539 47.0402 49.2539C47.7502 49.2539 48.3502 49.8639 48.3502 50.5639V52.6839C48.3502 53.4939 47.7502 53.9939 47.0402 53.9939Z" fill="#FBF9FF"/>
<path d="M9.23015 33.8358C7.11015 33.8358 5.40015 32.1258 5.40015 30.0058C5.40015 27.8858 7.11015 26.1758 9.23015 26.1758C11.3501 26.1758 13.0601 27.8858 13.0601 30.0058C13.0601 32.1258 11.3501 33.8358 9.23015 33.8358ZM9.23015 28.7958C8.52015 28.7958 7.92015 29.4058 7.92015 30.1058C7.92015 30.8058 8.53015 31.4158 9.23015 31.4158C9.93015 31.4158 10.5401 30.8058 10.5401 30.1058C10.5401 29.4058 9.94015 28.7958 9.23015 28.7958Z" fill="#FBF9FF"/>
<path d="M19.3102 33.8358C17.1902 33.8358 15.4802 32.1258 15.4802 30.0058C15.4802 27.8858 17.1902 26.1758 19.3102 26.1758C21.4302 26.1758 23.1402 27.8858 23.1402 30.0058C23.1402 32.1258 21.4302 33.8358 19.3102 33.8358ZM19.3102 28.7958C18.6002 28.7958 18.0002 29.4058 18.0002 30.1058C18.0002 30.8058 18.6102 31.4158 19.3102 31.4158C20.0102 31.4158 20.6202 30.8058 20.6202 30.1058C20.6202 29.4058 20.0102 28.7958 19.3102 28.7958Z" fill="#FBF9FF"/>
<path d="M39.2801 38.8748H1.67011C0.960107 38.8748 0.360107 38.2648 0.360107 37.5648V22.4448C0.360107 21.7348 0.960107 21.1348 1.67011 21.1348H52.0801C52.7901 21.1348 53.3901 21.7348 53.3901 22.4448V30.6148C53.3901 31.1148 53.0901 31.5248 52.6901 31.7248C52.2901 31.9248 51.6801 31.8248 51.3801 31.5248C50.1701 30.5148 48.7601 30.0148 47.1501 30.0148C43.5201 30.0148 40.6001 32.9348 40.6001 36.5648V37.5748C40.6001 38.2848 39.9901 38.8848 39.2901 38.8848L39.2801 38.8748ZM2.98011 36.3548H38.0701C38.1701 31.5148 42.2001 27.4848 47.1401 27.4848C48.4501 27.4848 49.7601 27.7848 50.8701 28.2948V23.6548H2.98011V36.3548Z" fill="#FBF9FF"/>
<path d="M54.8002 39.8848H39.2702C38.5602 39.8848 37.9602 39.2748 37.9602 38.5748V36.4548C37.9602 31.5148 41.9902 27.3848 47.0302 27.3848C49.1502 27.3848 51.2602 28.0948 52.8802 29.5048C54.9002 31.2148 56.1102 33.7348 56.1102 36.4648V38.5848C56.1102 39.3948 55.5002 39.8948 54.8002 39.8948V39.8848ZM40.5802 37.3648H53.5902V36.4548C53.5902 34.5348 52.7802 32.7248 51.2702 31.5148C50.0602 30.5048 48.6502 30.0048 47.0402 30.0048C43.4102 30.0048 40.4902 32.9248 40.4902 36.5548V37.3648H40.5902H40.5802Z" fill="#FBF9FF"/>
<path d="M47.0401 59.0349H1.67011C0.960107 59.0349 0.360107 58.4249 0.360107 57.7249V42.6049C0.360107 41.8949 0.960107 41.2949 1.67011 41.2949H35.7501C36.4601 41.2949 37.0601 41.9049 37.0601 42.6049V46.4349C37.0601 51.9849 41.6001 56.5149 47.1401 56.5149C47.8501 56.5149 48.4501 57.1149 48.4501 57.8249C48.3501 58.4249 47.7401 59.0349 47.0401 59.0349ZM2.98011 56.5149H39.4801C36.4601 54.1949 34.4401 50.5649 34.4401 46.4349V43.9149H2.98011V56.5149Z" fill="#FBF9FF"/>
<path d="M47.0402 59.0352C40.0802 59.0352 34.4402 53.3852 34.4402 46.4352V38.6752C34.4402 37.9652 35.0402 37.3652 35.7502 37.3652H58.3302C59.0402 37.3652 59.6402 37.9652 59.6402 38.6752V46.4352C59.6402 51.2752 56.9202 55.6052 52.6802 57.7252C50.8602 58.5352 49.0502 59.0352 47.0302 59.0352H47.0402ZM37.0602 39.8752V46.4252C37.0602 51.9752 41.6002 56.5052 47.1402 56.5052C48.6502 56.5052 50.1602 56.2052 51.5802 55.4952C55.0102 53.7852 57.2302 50.3552 57.2302 46.5252V39.9752L37.0702 39.8752H37.0602Z" fill="#FBF9FF"/>
<path d="M9.23015 53.994C7.11015 53.994 5.40015 52.284 5.40015 50.164C5.40015 48.044 7.11015 46.334 9.23015 46.334C11.3501 46.334 13.0601 48.044 13.0601 50.164C13.0601 52.284 11.3501 53.994 9.23015 53.994ZM9.23015 48.954C8.52015 48.954 7.92015 49.554 7.92015 50.264C7.92015 50.974 8.53015 51.574 9.23015 51.574C9.93015 51.574 10.5401 50.974 10.5401 50.264C10.5401 49.454 9.94015 48.954 9.23015 48.954Z" fill="#FBF9FF"/>
<path d="M19.3102 53.994C17.1902 53.994 15.4802 52.284 15.4802 50.164C15.4802 48.044 17.1902 46.334 19.3102 46.334C21.4302 46.334 23.1402 48.044 23.1402 50.164C23.1402 52.284 21.4302 53.994 19.3102 53.994ZM19.3102 48.954C18.6002 48.954 18.0002 49.554 18.0002 50.264C18.0002 50.974 18.6102 51.574 19.3102 51.574C20.0102 51.574 20.6202 50.974 20.6202 50.264C20.6202 49.454 20.0102 48.954 19.3102 48.954Z" fill="#FBF9FF"/>
</svg>
