<svg width="60" height="60" viewBox="0 0 60 60" fill="none" xmlns="http://www.w3.org/2000/svg">
<path d="M25.3 38.2658C24.9 38.1658 24.5 37.9658 24.2 37.7658C24.1 37.6658 24 37.6658 24 37.5658L23.2 39.1658C24 39.6658 25 39.9658 26 40.0658V41.3658H26.7V40.0658C27.3 40.0658 28 39.8658 28.5 39.4658C28.7 39.2658 28.9 39.0658 29.1 38.7658C29.2 38.4658 29.3 38.1658 29.3 37.6658C29.3 36.7658 28.9 36.0658 27.9 35.6658C27.2 35.3658 26.7 35.2658 26.6 35.2658V33.7658C26.8 33.7658 27 33.8658 27.2 33.8658C27.5 33.9658 27.9 34.1658 28.1 34.2658C28.2 34.3658 28.3 34.3658 28.3 34.3658L29.1 32.8658C28.8 32.6658 28.4 32.5658 28 32.3658C27.6 32.1658 27.1 32.0658 26.7 32.0658V30.9658H26V32.2658C25 32.3658 24.1 32.8658 23.7 33.7658C23.5 34.3658 23.5 35.0658 23.6 35.5658C23.8 36.0658 24.2 36.3658 24.6 36.5658C25.2 36.8658 25.8 36.9658 26 37.0658V38.4658C25.8 38.4658 25.5 38.3658 25.3 38.2658ZM26.5 37.1658C26.8 37.2658 27 37.3658 27.1 37.4658C27.3 37.5658 27.3 37.7658 27.3 37.8658C27.3 38.2658 27 38.4658 26.5 38.4658V37.1658ZM25.5 34.8658C25.4 34.7658 25.3 34.6658 25.3 34.4658C25.3 34.0658 25.6 33.8658 26.1 33.8658V35.1658C25.8 35.0658 25.6 34.9658 25.5 34.8658Z" fill="#FBF9FF"/>
<path d="M26.1999 45.0658C30.9999 45.0658 34.9999 41.1658 34.9999 36.2658C34.9999 31.3658 31.0999 27.4658 26.1999 27.4658C21.2999 27.4658 17.3999 31.3658 17.3999 36.2658C17.3999 41.1658 21.3999 45.0658 26.1999 45.0658ZM26.1999 30.0658C29.5999 30.0658 32.4999 32.8658 32.4999 36.3658C32.4999 39.8658 29.6999 42.6658 26.1999 42.6658C22.6999 42.6658 19.8999 39.8658 19.8999 36.3658C19.8999 32.8658 22.7999 30.0658 26.1999 30.0658Z" fill="#FBF9FF"/>
<path d="M57.5 33.7656H46.2C45.5 33.7656 44.9 34.3656 44.9 35.0656V45.0656H44.2L42.6 28.6656C42.2 24.4656 40.2 20.6656 37.2 18.0656C41.4 18.0656 47 17.3656 49.6 14.0656C50 13.5656 49.9 12.7656 49.4 12.2656C48.9 11.8656 48.1 11.9656 47.6 12.4656C45.7 14.8656 40.9 15.4656 37.1 15.4656C41 12.4656 43.4 8.26565 43.5 8.06565C43.7999 7.46565 43.5999 6.66565 43 6.36565C42.4 6.06565 41.5999 6.26565 41.2999 6.86565C41.2999 6.96565 38.7999 11.3656 34.7999 14.0656L37.2 4.86565C37.4 4.26565 37 3.56565 36.4 3.36565C36.2 3.36565 32.7 2.26565 27.7 4.66565C24.6 6.16565 19.9 2.86565 18.4 1.46565C18 1.06565 17.4 1.06565 16.9 1.26565C16.4 1.56565 16.2 2.06565 16.3 2.66565L19.2 15.3656C14.1 17.7656 10.5 22.7656 9.89995 28.5656L8.19995 45.0656H8.09995C4.29995 45.0656 1.19995 48.1656 1.19995 51.9656C1.19995 55.7656 4.29995 58.8656 8.09995 58.8656H57.5C58.2 58.8656 58.7999 58.2656 58.7999 57.5656V35.0656C58.7 34.3656 58.0999 33.7656 57.5 33.7656ZM36.2 51.2656H45V52.5656H36.2V51.2656ZM56.2 41.2656H47.4V39.9656H56.2V41.2656ZM47.5 43.7656H56.2V45.0656H47.4V43.7656H47.5ZM56.2 47.5656V48.8656H47.4V47.5656H56.2ZM47.5 51.2656H56.2V52.5656H47.4V51.2656H47.5ZM47.5 36.2656H56.2V37.5656H47.4V36.2656H47.5ZM45 48.7656H36.2V47.4656H45V48.7656ZM19.4 5.36565C21.9 6.86565 25.5 8.46565 28.7 6.86565C31.2 5.66565 33.2 5.46565 34.4 5.56565L32 14.7656C28.7 13.5656 25 13.3656 21.6 14.3656L19.4 5.36565ZM3.69995 51.8656C3.69995 49.4656 5.69995 47.4656 8.09995 47.4656H9.39995C11.1 47.4656 12.5 48.8656 12.5 50.5656C12.5 51.2656 13.1 51.8656 13.8 51.8656C14.5 51.8656 15.1 51.2656 15.1 50.5656C15.1 47.9656 13.3 45.7656 10.8 45.0656L12.4 28.6656C13 21.5656 19.1 16.2656 26.2 16.2656C33.2999 16.2656 39.4 21.6656 40.1 28.8656L41.7 45.0656H35C34.2999 45.0656 33.7 45.6656 33.7 46.3656V52.6656H23.7C23 52.6656 22.4 53.2656 22.4 53.9656V56.2656H8.09995C5.69995 56.2656 3.69995 54.2656 3.69995 51.8656ZM25 55.0656H33.7999V56.2656H25V55.0656ZM36.2 55.0656H45V56.2656H36.2V55.0656ZM56.2 56.2656H47.4V54.9656H56.2V56.2656Z" fill="#FBF9FF"/>
<path d="M57.4999 26.2656H46.1999C45.4999 26.2656 44.8999 26.8656 44.8999 27.5656V31.2656C44.8999 31.9656 45.4999 32.5656 46.1999 32.5656H57.4999C58.1999 32.5656 58.7999 31.9656 58.7999 31.2656V27.4656C58.6999 26.8656 58.0999 26.2656 57.4999 26.2656ZM56.1999 30.0656H47.3999V28.7656H56.1999V30.0656Z" fill="#FBF9FF"/>
</svg>
