<svg width="62" height="62" viewBox="0 0 62 62" fill="none" xmlns="http://www.w3.org/2000/svg">
<path d="M60.6749 58.6779H45.5349V49.7979H50.5849C51.0849 49.7979 51.4949 49.4979 51.6949 49.0879C51.8949 48.6879 51.7949 48.0779 51.4949 47.7779L38.8749 32.6379C38.3749 32.0279 37.3649 32.0279 36.8549 32.7379L36.6549 33.0379V18.2979H41.7049C42.2049 18.2979 42.6149 17.9979 42.8149 17.5879C43.0149 17.1879 42.9149 16.5779 42.6149 16.2779L29.9949 1.14786C29.4949 0.537859 28.4849 0.537859 27.9749 1.24786L16.5649 16.3879C16.2649 16.7879 16.2649 17.2979 16.4649 17.6979C16.6649 18.0979 17.0749 18.4079 17.5749 18.4079H22.6249V25.8779C22.6249 26.5879 23.2349 27.1879 23.9349 27.1879C24.6349 27.1879 25.2449 26.5779 25.2449 25.8779V16.9979C25.2449 16.2879 24.6349 15.6879 23.9349 15.6879H20.0949L28.9849 3.87786L38.9749 15.7879H29.0849C28.3749 15.7879 27.7749 16.3979 27.7749 17.0979C27.7749 17.7979 28.3849 18.4079 29.0849 18.4079H34.1349V35.9679C34.1349 36.0679 34.1349 36.1679 34.2349 36.2679L25.5549 47.8779C25.2549 48.2779 25.2549 48.7879 25.4549 49.1879C25.6549 49.5879 26.0649 49.8979 26.5649 49.8979H31.6149V58.7779H24.0449V38.5879H29.0949C29.5949 38.5879 30.0049 38.2879 30.2049 37.8779C30.4049 37.4779 30.3049 36.8679 30.0049 36.5679L17.4849 21.2279C16.9849 20.6179 15.9749 20.6179 15.4649 21.3279L4.05489 36.4679C3.75489 36.8679 3.75489 37.3779 3.95489 37.7779C4.15489 38.1779 4.56489 38.4879 5.06489 38.4879H10.1149V58.6779H1.32489C0.614893 58.6779 0.0148926 59.2879 0.0148926 59.9879C0.0148926 60.6879 0.624893 61.2979 1.32489 61.2979H60.6749C61.3849 61.2979 61.9849 60.6879 61.9849 59.9879C61.8849 59.2779 61.2749 58.6779 60.6749 58.6779ZM12.7349 58.6779V37.2779C12.7349 36.5679 12.1249 35.9679 11.4249 35.9679H7.58489L16.4649 24.1579L26.3549 35.9679H16.4649C15.7549 35.9679 15.1549 36.5779 15.1549 37.2779C15.1549 37.9779 15.7649 38.5879 16.4649 38.5879H21.5149V58.7779H12.7349V58.6779ZM34.1349 58.6779V48.5879C34.1349 47.8779 33.5249 47.2779 32.8249 47.2779H28.9849L37.8649 35.4679L47.7549 47.2779H37.8649C37.1549 47.2779 36.5549 47.8879 36.5549 48.5879C36.5549 49.2879 37.1649 49.8979 37.8649 49.8979H42.9149V58.7779H34.1349V58.6779Z" fill="#FBF9FF"/>
<path d="M1.32489 25.8778H8.89489C9.60489 25.8778 10.2049 25.2678 10.2049 24.5678C10.2049 23.8678 9.59489 23.2578 8.89489 23.2578H1.32489C0.614893 23.2578 0.0148926 23.8678 0.0148926 24.5678C0.0148926 25.2678 0.624893 25.8778 1.32489 25.8778Z" fill="#FBF9FF"/>
<path d="M39.175 23.3574C38.465 23.3574 37.865 23.9674 37.865 24.6674C37.865 25.3674 38.475 25.9774 39.175 25.9774H59.365C60.075 25.9774 60.675 25.3674 60.675 24.6674C60.675 23.9674 60.065 23.3574 59.365 23.3574H39.175Z" fill="#FBF9FF"/>
<path d="M48.0549 20.828H58.1449C58.8549 20.828 59.4549 20.218 59.4549 19.518C59.4549 18.818 58.8449 18.208 58.1449 18.208H48.0549C47.3449 18.208 46.7449 18.818 46.7449 19.518C46.7449 20.218 47.3549 20.828 48.0549 20.828Z" fill="#FBF9FF"/>
<path d="M12.7348 8.21824H20.3048C21.0148 8.21824 21.6148 7.60824 21.6148 6.90824C21.6148 6.20824 20.9048 5.69824 20.3048 5.69824H12.7348C12.0248 5.69824 11.4248 6.30824 11.4248 7.00824C11.4248 7.70824 12.0348 8.21824 12.7348 8.21824Z" fill="#FBF9FF"/>
<path d="M9.80486 7.80828C10.3049 7.30828 10.3049 6.49828 9.80486 5.98828C9.30486 5.48828 8.49486 5.48828 7.98486 5.98828C7.48486 6.48828 7.48486 7.29828 7.98486 7.80828C8.48486 8.30828 9.59486 8.10828 9.80486 7.80828Z" fill="#FBF9FF"/>
<path d="M5.97479 7.80828C6.47479 7.30828 6.47479 6.49828 5.97479 5.98828C5.47479 5.48828 4.66479 5.48828 4.15479 5.98828C3.65479 6.48828 3.65479 7.29828 4.15479 7.80828C4.76479 8.30828 5.76479 8.10828 5.97479 7.80828Z" fill="#FBF9FF"/>
</svg>
