<svg width="60" height="60" viewBox="0 0 60 60" fill="none" xmlns="http://www.w3.org/2000/svg">
<path d="M30 57.72C22.64 57.72 15.58 54.8 10.44 49.55C5.19002 44.41 2.27002 37.36 2.27002 30C2.27002 22.64 5.19002 15.58 10.44 10.44C15.68 5.19002 22.64 2.27002 30 2.27002C37.36 2.27002 44.42 5.19002 49.56 10.44C54.8 15.68 57.73 22.64 57.73 30C57.73 37.36 54.81 44.42 49.56 49.56C44.32 54.7 37.36 57.73 30 57.73V57.72ZM30 4.79002C16.08 4.79002 4.79002 16.08 4.79002 30C4.79002 43.92 16.08 55.21 29.99 55.21C43.9 55.21 55.2 43.92 55.2 30C55.2 16.08 43.91 4.79002 30 4.79002Z" fill="#FBF9FF"/>
<path d="M29.9999 57.72C25.9699 57.72 22.3399 54.7 19.6199 49.25C17.0999 44.11 15.6899 37.25 15.6899 29.99C15.6899 22.73 17.0999 15.88 19.6199 10.73C22.3299 5.29002 25.9599 2.27002 29.9999 2.27002C34.0399 2.27002 37.6599 5.29002 40.3799 10.74C42.8999 15.88 44.3099 22.74 44.3099 30C44.3099 37.26 42.8999 44.12 40.3799 49.26C37.6599 54.7 34.0299 57.73 29.9999 57.73V57.72ZM29.9999 4.79002C23.5499 4.79002 18.0999 16.28 18.0999 30C18.0999 43.72 23.5399 55.21 29.9999 55.21C36.4599 55.21 41.8999 43.72 41.8999 30C41.8999 16.28 36.4499 4.79002 29.9999 4.79002Z" fill="#FBF9FF"/>
<path d="M44.4101 15.3803H15.3801C14.6701 15.3803 14.0701 14.7803 14.0701 14.0703C14.0701 13.3603 14.6801 12.7603 15.3801 12.7603H44.4201C45.1301 12.7603 45.7301 13.3603 45.7301 14.0703C45.7301 14.7803 45.0201 15.3803 44.4201 15.3803H44.4101Z" fill="#FBF9FF"/>
<path d="M55.71 25.4598H5.28998C4.57998 25.4598 3.97998 24.8598 3.97998 24.1498C3.97998 23.4398 4.58998 22.8398 5.28998 22.8398H55.7C56.41 22.8398 57.01 23.4398 57.01 24.1498C57.01 24.8598 56.41 25.4598 55.7 25.4598H55.71Z" fill="#FBF9FF"/>
<path d="M44.4101 46.9301H15.3801C14.6701 46.9301 14.0701 46.3201 14.0701 45.6201C14.0701 44.9201 14.6801 44.3101 15.3801 44.3101H44.4201C45.1301 44.3101 45.7301 44.9101 45.7301 45.6201C45.6301 46.3301 45.0201 46.9301 44.4201 46.9301H44.4101Z" fill="#FBF9FF"/>
<path d="M55.71 36.85H5.28998C4.57998 36.85 3.97998 36.24 3.97998 35.54C3.97998 34.84 4.58998 34.23 5.28998 34.23H55.7C56.41 34.23 57.01 34.83 57.01 35.54C57.01 36.25 56.41 36.85 55.7 36.85H55.71Z" fill="#FBF9FF"/>
<path d="M29.9999 57.72C29.2999 57.72 28.6899 57.12 28.6899 56.41V3.58002C28.6899 2.87002 29.2999 2.27002 29.9999 2.27002C30.6999 2.27002 31.3099 2.87002 31.3099 3.58002V56.51C31.3099 57.12 30.6999 57.72 29.9999 57.72Z" fill="#FBF9FF"/>
</svg>
