<svg width="332" height="264" viewBox="0 0 332 264" fill="none" xmlns="http://www.w3.org/2000/svg">
<g clip-path="url(#clip0_365_1632)">
<path d="M61.4007 190.622C61.0331 192.055 61.1961 192.279 61.467 192.7C61.9025 192.213 62.2116 191.646 62.6876 191.404C63.421 191.044 63.2445 190.28 63.5047 189.645C63.7824 189.65 64.06 189.654 64.3989 189.649C65.5622 188.462 66.7766 187.205 68.081 185.882C68.5261 185.833 69.1077 185.926 69.5517 185.261C70.2963 184.207 71.1573 183.171 72.383 182.591C72.8978 182.355 73.4249 182.042 73.8419 181.671C74.1628 181.404 74.3696 180.98 74.7051 180.496C74.845 181.115 74.9282 181.466 75.0844 182.108C75.4733 181.414 75.7189 180.996 75.9993 180.484C76.4995 180.464 77.0834 180.418 77.7061 180.378C78.2462 179.61 78.6924 178.806 79.3977 178.123C80.0355 177.489 80.6284 176.888 81.5208 176.652C80.1805 177.453 79.8433 179.069 78.6558 180.033C77.6257 180.882 76.8136 181.986 76.0078 183.05C75.5537 183.654 75.679 184.489 74.8821 184.998C74.0565 185.562 73.3715 186.367 72.501 186.964C71.9839 187.339 71.5911 187.932 71.2045 188.487C70.6357 189.311 70.4728 190.458 69.5146 190.981C69.6742 192.1 68.6604 192.972 69.138 194.341C69.5466 194.147 70.0142 194.083 70.2024 193.775C70.6751 193.055 71.0274 192.216 71.4186 191.384C71.6186 191.376 71.8187 191.368 72.1801 191.347C72.5324 190.508 73.5086 190.246 74.0992 189.784C74.4887 188.713 74.8146 187.79 75.1406 186.868C75.9308 186.775 76.9367 187.075 76.912 185.858C77.1834 185.902 77.4037 186.016 77.61 185.97C77.8836 185.874 78.2635 185.736 78.3169 185.526C78.807 184.073 80.7829 184.149 81.2117 182.707C82.2267 182.451 83.2028 182.189 84.179 181.927C84.2324 181.717 84.2858 181.507 84.3229 181.274C85.4541 181.037 86.5691 180.777 87.7229 180.524C86.9479 181.394 86.7472 181.78 86.4966 182.853C87.86 183.031 88.0112 181.584 88.8569 181.142C89.8089 180.658 90.6632 180.038 91.7624 179.379C91.6758 179.922 91.6326 180.193 91.5871 180.603C90.8273 180.88 90.3012 181.81 89.1379 181.624C88.59 183.565 86.4719 184.38 85.8278 186.425C85.5114 186.414 85.1726 186.42 84.7949 186.419C84.5145 186.931 84.2279 187.482 83.9249 188.01C83.7698 187.985 83.5597 187.932 83.4045 187.907C82.9527 188.372 82.6048 188.933 82.0839 189.208C79.6814 190.435 78.0247 192.596 75.9054 194.167C75.7481 194.281 75.6947 194.491 75.5862 194.673C74.7432 195.97 74.2796 197.506 73.2163 198.689C73.0241 198.897 73.0887 199.364 73.0185 199.93C73.5473 199.855 73.8536 199.804 74.4437 199.72C74.1942 200.038 74.0407 200.252 73.8648 200.482C73.975 200.539 74.0688 200.574 74.2015 200.615C73.2983 201.167 72.3952 201.719 71.5534 202.261C71.3887 203.169 71.2201 203.977 71.074 204.769C69.5696 206.1 68.4197 207.825 66.5955 208.667C66.5067 209.349 66.4017 210.008 66.3561 210.419C65.1422 211.299 64.0739 211.764 63.5923 213.04C63.2787 213.884 62.3082 214.485 61.5888 215.007C59.6904 216.314 58.9419 218.64 57.1699 220.028C56.8631 221.828 55.2204 222.779 54.8422 224.528C55.4935 224.433 56.2674 224.317 57.5088 224.138C56.8091 225.159 56.3426 225.84 55.8414 226.615C56.1105 226.797 56.341 226.973 56.7141 227.252C56.6972 228.978 56.2639 230.699 55.2715 232.31C54.9101 232.332 54.5488 232.354 54.0649 232.396C53.0944 232.997 51.9889 233.695 50.8672 234.371C50.8116 234.72 50.7559 235.069 50.6879 235.496C50.3569 235.701 50.0034 235.923 49.4763 236.237C49.5331 236.505 49.61 236.895 49.6646 237.301C49.5707 237.266 49.7584 237.336 49.9298 237.383C49.5224 238.193 49.1374 238.986 48.5805 240.11C48.3782 240.257 47.8285 240.587 47.3464 240.868C47.1901 241.598 47.2665 242.366 46.4416 242.553C46.3589 244.567 46.5315 246.603 45.7587 248.706C45.0939 248.262 44.5392 247.876 43.8969 247.415C43.9834 246.873 44.0413 246.385 44.1155 245.919C43.6013 245.778 43.0871 245.636 42.6116 245.501C42.0862 246.053 41.5832 246.589 41.0353 247.158C40.4401 246.526 39.9428 246.03 39.3639 245.42C39.6123 244.486 38.4884 243.929 38.2079 243.069C37.8427 242.991 37.5611 242.886 37.2734 242.821C36.8665 243.253 36.4141 244.095 36.0263 244.033C35.212 243.904 34.8478 244.442 34.323 244.617C32.2369 243.111 29.6293 242.258 29.0909 239.15C27.7669 239.973 26.6002 240.682 25.5622 241.331C22.686 239.918 20.5151 237.823 18.1548 235.419C17.767 235.357 17.1241 235.274 16.4649 235.169C16.4997 235.075 16.5408 234.943 16.5981 234.832C16.031 234.523 15.464 234.214 14.6991 233.774C14.4817 233.143 13.4027 232.554 13.6432 231.419C13.2453 231.296 12.8087 231.167 12.2781 231.003C11.9528 230.175 11.6173 229.287 11.2553 228.315C11.5026 228.135 11.805 227.985 11.8724 227.936C12.9065 225.814 11.8404 223.398 13.319 221.606C14.6217 221.416 14.7689 221.24 15.3292 219.222C15.6518 219.194 16.0171 219.272 16.1581 219.136C17.0067 218.178 18.1183 217.44 18.5286 216.114C20.0122 216.41 20.3977 215.239 20.781 214.207C20.9738 213.621 21.148 213.152 21.6993 213.061C22.1461 213.251 22.4827 213.384 22.9458 213.597C22.8772 213.03 22.8328 212.685 22.7558 212.295C23.4707 212.051 24.2771 211.981 24.8453 211.534C25.4073 211.127 25.6208 210.286 26.1075 209.728C26.9561 208.769 27.8924 207.885 28.7798 206.933C29.0169 206.692 29.095 206.327 29.222 206.029C28.8652 205.774 28.5634 205.546 28.3004 205.326C28.6387 204.326 29.4485 204.733 29.9959 204.542C30.5658 204.335 31.1356 204.127 31.8729 203.867C31.8386 203.583 31.8128 203.122 31.7768 202.599C32.5703 202.984 33.066 203.242 33.6005 203.507C34.1546 202.899 34.68 202.347 35.183 201.81C35.4488 201.515 35.6393 201.068 35.9642 200.901C37.1123 200.309 37.7221 199.352 37.8738 197.528C38.193 198.394 38.3475 198.796 38.4633 199.192C39.2171 198.371 39.5369 197.488 39.4226 196.542C40.3937 196.935 40.8197 196.009 41.3384 195.873C41.8234 195.076 42.2 194.46 42.6788 193.701C43.1846 194.02 43.5802 194.282 44.1573 194.653C44.2692 193.577 44.3355 192.912 44.4058 192.346C45.1802 191.853 45.8647 191.426 46.7228 190.906C46.7048 190.645 46.679 190.184 46.6913 190.106C47.5725 189.193 48.1716 188.553 48.9056 187.815C49.2214 188.203 49.5108 188.508 49.8267 188.896C50.0964 188.701 50.3988 188.55 50.7747 188.312C50.7753 186.562 51.8594 185.125 52.5354 183.503C52.6276 183.299 52.9625 183.193 53.3666 183.277C53.2643 183.42 53.1458 183.541 53.0598 183.706C52.98 183.832 52.9389 183.965 52.8591 184.091C52.9732 184.249 53.1486 184.396 53.2626 184.553C53.4526 184.484 53.6527 184.476 53.6875 184.382C54.1877 182.991 54.954 181.967 55.9866 181.309C56.0647 180.944 56.1203 180.595 56.1985 180.23C56.9976 179.582 57.7804 178.911 58.6757 178.16C58.7858 178.217 59.0713 178.421 59.3956 178.632C59.7862 178.178 60.1543 177.739 60.4999 177.317C61.2344 177.573 61.82 177.766 62.7034 178.086C61.0383 179.053 60.3903 180.998 58.2733 181.058C58.3031 181.619 58.3104 182.197 58.3525 182.681C58.9831 182.841 59.5973 182.979 60.1891 183.133C60.1374 183.582 60.084 183.792 60.0694 184.008C60.492 183.976 60.8921 183.96 61.331 183.951C61.4018 183.008 62.4185 182.991 62.9439 182.439C63.0159 182.112 63.0777 181.724 63.1086 181.53C64.4068 180.246 65.5926 179.044 67.1504 177.503C66.9756 178.35 66.9891 178.888 66.8441 178.925C65.7168 179.262 65.7252 180.456 65.1688 181.203C64.6124 181.949 64.1763 182.814 63.7076 183.634C63.6565 183.705 63.7318 183.856 63.752 183.979C63.9234 184.026 64.0561 184.067 64.305 184.127C64.2331 184.453 64.1224 184.774 64.0218 185.155C63.5992 185.187 63.199 185.203 62.8152 185.241C62.7618 185.451 62.6595 185.594 62.7023 185.7C62.9484 186.276 63.2558 186.842 63.5834 187.531C63.6548 187.582 63.9139 187.703 64.2606 187.897C64.0639 188.383 63.8959 188.813 63.5947 189.58C63.4407 188.8 63.3575 188.449 63.2805 188.059C63.0967 188.089 62.8967 188.097 62.8905 188.136C62.5438 189.313 61.7373 190.755 61.5069 190.579C61.2467 188.47 62.1886 187.925 62.8489 187.274C61.7733 187.163 61.0157 187.3 59.4427 188.063C59.0567 188.24 58.8212 188.72 58.5267 189.07C58.3328 189.04 58.1226 188.986 58.0451 188.974C57.6545 189.428 57.3151 189.812 56.9694 190.234C57.6758 191.539 56.3743 192.346 56.3867 193.64C56.517 193.82 56.7064 194.128 56.9121 194.459C56.6199 194.671 56.3074 194.76 56.1152 194.968C55.9517 195.121 55.9472 195.399 55.8775 195.587C55.5347 195.492 55.3245 195.439 54.998 195.367C55.2936 194.261 55.5729 193.132 55.891 192.01C55.1048 192.203 54.3349 192.418 53.6099 192.601C53.4559 193.193 53.3592 193.674 53.2216 194.288C52.5258 194.038 51.979 193.852 51.6199 193.735C51.4221 192.232 52.8737 192.106 53.5975 191.307C54.8468 189.955 56.2265 188.783 56.7846 186.904C56.92 186.429 57.4859 186.121 57.8153 185.677C58.0485 185.336 58.2328 184.928 58.4273 184.581C58.3233 184.485 58.2131 184.428 58.1092 184.332C57.5449 184.878 56.9644 185.402 56.4002 185.948C56.131 185.766 55.8455 185.561 55.4336 185.277C55.2447 185.963 55.0806 186.493 54.9165 187.024C54.5164 187.039 54.1775 187.045 53.8162 187.067C53.6858 186.887 53.5554 186.707 53.4312 186.489C53.5908 186.236 53.7566 185.944 53.9898 185.604C53.2362 185.841 52.5663 186.053 51.7902 186.307C51.8346 186.652 51.8504 187.052 51.8824 187.474C52.6012 187.331 53.1974 187.207 53.7937 187.083C54.2787 187.658 54.2146 188.184 53.8156 188.816C53.5992 188.802 53.3053 188.775 53.0339 188.732C52.9142 189.607 52.3443 189.814 51.4586 189.634C51.2608 190.874 51.063 192.115 50.9191 192.768C50.0351 194.198 49.4417 195.177 48.8195 196.211C48.1193 196.238 47.5517 196.307 47.1094 197.211C46.4154 198.571 45.3909 199.76 44.5153 201.012C43.1733 202.945 41.5845 204.68 40.8584 206.99C41.0377 207.237 41.1945 207.501 41.3513 207.764C42.0313 207.614 42.7113 207.464 43.4138 207.298C43.3407 207.008 43.2615 206.757 43.162 206.383C44.3293 205.296 45.5252 204.155 46.7598 203.02C46.97 203.073 47.1802 203.127 47.4292 203.186C47.414 202.408 48.0209 201.968 48.3137 201.379C48.7049 200.547 49.5501 200.483 49.9879 199.857C50.066 199.491 50.1216 199.142 50.2121 198.699C50.5083 198.588 50.8494 198.443 51.0455 198.335C50.8685 199.321 50.6814 200.245 50.4858 201.347C50.2835 201.494 49.9137 201.694 49.6052 201.883C49.5147 202.326 49.459 202.675 49.3624 203.156C48.7678 203.519 48.1058 203.93 47.4213 204.358C47.5843 204.583 47.6922 204.779 47.8062 204.936C49.5563 204.559 50.2913 203.066 51.0972 202.002C51.5749 201.998 51.8525 202.003 52.0526 201.995C52.3741 201.35 52.6607 200.8 52.9124 200.343C54.4736 199.279 56.2669 198.631 57.0739 196.811C57.1026 196.756 57.1374 196.662 57.1599 196.646C58.521 196.962 58.5255 195.313 59.5691 195.002C60.1328 194.834 60.3998 193.783 60.7825 193.128L60.4644 192.878C59.9901 193.359 59.477 193.834 59.0027 194.315C59.0488 193.528 59.309 192.893 59.6568 192.332C60.0558 191.7 60.5588 191.164 61.0067 190.599C60.9741 190.554 60.9028 190.503 60.8477 190.474C61.2686 190.203 61.7058 189.955 61.5108 190.679L61.4007 190.622ZM50.2142 234.227C51.0195 233.541 51.2291 232.6 51.3146 231.441C50.6525 231.852 50.1409 232.691 49.7798 233.959C49.7798 233.959 50.0327 234.119 50.1917 234.244L50.2142 234.227Z" fill="#FFA800"/>
<path d="M186.481 93.8025C186.855 93.703 187.235 93.5647 187.67 93.4552C187.633 93.3102 187.576 93.0427 187.434 92.5627C188.2 92.2475 189.011 91.8996 189.973 91.4764C190.008 91.3826 190.135 91.0847 190.348 90.6217C190.66 90.91 190.874 91.0634 191.066 91.2331C190.957 91.4146 190.91 91.586 190.82 91.6512C189.888 92.2581 189.079 92.8448 188.506 93.9463C187.961 94.9927 186.762 95.6564 185.832 96.5022C185.76 96.8287 185.704 97.1777 185.595 97.7369C185.064 97.9504 184.362 98.1168 183.79 98.463C183.24 98.7928 182.821 99.3026 182.24 99.8263C182.219 100.081 182.213 100.498 182.206 100.914C182.006 102.294 180.258 102.91 180.542 104.864C180.967 104.693 181.429 104.667 181.521 104.463C181.793 103.751 182.663 103.532 182.889 102.991C183.212 102.208 183.965 102.726 184.362 102.232C184.765 101.7 185.359 101.338 186.181 100.673C186.597 100.68 187.424 100.732 188.173 100.772C188.525 100.311 188.899 99.8342 189.353 99.2307C189.986 99.252 190.813 99.3043 191.662 99.3403C192.508 98.5209 193.074 97.2193 194.604 97.3441C195.074 96.1465 196.529 96.1201 197.151 95.0861C197.419 94.6517 197.924 94.3544 198.341 93.9835C198.745 94.4454 199.012 94.7663 199.285 95.0484C199.987 94.8821 199.777 93.4569 200.872 94.0689C200.937 93.1647 201.788 93.0618 202.35 92.6544C202.935 92.2307 203.552 91.8519 204.201 91.5181C204.79 91.1944 205.427 90.9381 206.389 90.515C206.479 90.4498 206.776 89.9603 207.203 89.6506C208.472 88.7992 209.784 88.0541 211.046 87.2414C211.406 86.9807 211.69 86.5687 212.097 86.1366C212.481 86.0984 213.02 86.0849 213.704 86.0349C213.818 84.8204 215.289 85.1942 215.929 84.4214C216.18 84.7199 216.47 85.0245 216.802 85.4353C217.495 84.4524 218.089 83.4734 219.53 83.6633C220.071 83.1334 220.244 82.0476 221.518 82.2904C221.922 82.3747 222.451 81.9223 222.817 81.6228C223.674 80.8647 225 80.8973 225.639 79.8857C226.974 80.1184 227.613 78.7292 228.687 78.6022C230.022 78.4572 230.766 77.4029 231.904 77.127C233.911 76.6319 235.393 75.3174 237.191 74.3913C237.344 74.5548 237.503 74.6796 237.727 74.8943C236.173 76.5352 234.145 77.6631 233.006 79.6885C231.866 79.4867 231.189 80.1145 230.751 81.1182C230.457 81.0912 230.202 81.0704 229.769 81.0412C229.64 81.4778 229.527 81.937 229.356 82.5063C228.032 83.329 226.641 84.2006 225.211 85.0661C224.728 85.3471 224.367 85.7466 223.62 85.5679C223.332 85.5022 222.955 86.1181 222.307 86.6908C222.14 86.7436 221.505 86.861 220.984 87.1358C219.672 87.881 218.403 88.7324 217.108 89.5001C216.822 89.6732 216.477 89.7176 215.997 89.8597C215.719 90.2329 215.322 90.7263 215.044 91.0995C214.535 91.2967 213.739 91.4282 213.724 91.6446C213.657 92.6876 212.453 92.6348 212.166 93.5632C211.989 94.1713 210.881 94.3921 210.229 94.8647C209.442 95.4351 208.759 96.1016 208.06 96.7457C207.338 97.406 206.122 97.4307 205.836 98.598C205.248 98.544 204.661 98.4901 204.749 99.5578C203.48 99.0374 202.861 100.549 201.616 100.251C201.684 101.197 200.554 101.056 200.314 101.813C200.108 102.476 199.522 102.661 198.832 102.75C197.897 102.879 197.923 102.963 197.33 103.942C197.12 103.888 196.806 103.739 196.693 103.82C195.702 104.676 194.134 104.784 193.544 106.241C193.411 106.577 192.777 106.934 192.473 106.846C191.318 106.482 191.235 107.503 190.761 107.984C190.467 107.957 190.189 107.953 189.74 107.901C189.644 108.383 189.525 108.88 189.416 109.44C189.193 109.464 188.909 109.498 188.725 109.528C188.221 109.826 187.779 110.352 187.301 110.355C186.43 110.335 186.308 110.972 185.961 111.533C184.942 111.311 184.276 112 183.501 112.493C182.659 113.035 181.83 113.499 180.795 113.254C178.911 114.723 178.099 117.198 175.876 118.295C175.468 118.489 174.961 118.547 174.571 118.624C174.136 119.111 173.745 119.566 173.044 120.349C172.984 120.598 172.873 121.296 172.717 122.026C172 122.031 171.378 122.071 170.8 122.079C170.497 122.607 170.233 123.141 169.907 123.686C169.675 123.649 169.442 123.612 169.226 123.597C168.996 124.038 168.745 124.494 168.429 125.1C168.076 125.322 167.571 125.62 167.218 125.842C166.851 126.896 166.525 127.819 166.269 128.553C165.509 128.83 164.747 128.867 164.424 129.273C163.107 131.051 160.777 131.574 159.249 133.299C159.249 133.299 159.055 133.268 158.79 133.186C158.043 134.379 157.417 135.691 156.55 136.765C155.66 137.856 155.527 139.565 153.758 140.058C153.612 139.856 153.471 139.615 153.331 139.373C153.496 139.082 153.662 138.79 153.834 138.46C154.128 138.487 154.399 138.53 154.793 138.553C155.213 137.666 155.639 136.739 156.059 135.852C154.532 135.827 154.614 135.94 153.594 136.851C152.224 138.084 150.724 139.137 149.257 140.235C149.077 140.365 148.712 140.287 148.434 140.283C148.393 140.415 148.34 140.626 148.309 140.819C146.142 140.196 145.408 141.928 144.312 143.065C144.047 143.361 143.623 143.77 143.358 143.688C142.401 143.456 142.032 144.65 141.23 144.442C140.179 144.176 140.218 145.176 139.701 145.551C139.088 146.029 138.371 146.412 137.777 146.775C137.395 146.674 137.107 146.608 136.703 146.524C136.675 146.201 136.653 145.84 136.609 145.495C135.449 145.787 134.103 145.871 133.117 146.449C132.062 147.076 131.12 148 130.206 148.868C129.546 149.518 129.126 150.406 128.42 151.466C127.948 151.808 126.911 152.08 126.615 153.186C126.282 153.153 126.027 153.132 125.733 153.105C125.091 154.017 124.491 155.035 122.932 154.587C123.073 153.457 123.849 152.825 124.565 152.203C124.998 151.855 125.321 151.449 125.667 151.027C126.608 149.865 127.756 148.895 128.889 147.903C129.069 147.772 129.434 147.85 129.634 147.842C130.513 147.068 130.705 145.866 131.557 145.008C132.083 144.455 132.215 143.502 132.675 142.86C133.09 142.25 133.862 141.896 134.239 141.28C134.718 140.521 135.6 140.225 136.038 139.599C137.466 137.5 139.911 136.379 141.066 133.999C140.843 134.023 140.56 134.057 140.214 134.101C140.241 133.808 140.285 133.536 140.334 133.226C143.074 131.376 144.824 128.633 146.382 125.721C147.001 125.203 147.545 124.534 148.262 124.152C148.873 123.812 149.166 123.222 149.754 122.898C150.533 122.506 151.229 122 151.959 121.54C152.037 121.175 152.099 120.787 152.136 120.554C153.483 119.338 154.795 118.215 156.036 117.041C156.273 116.8 156.374 116.419 156.701 115.735C155.554 115.95 154.89 116.123 154.723 117.17C154.385 116.797 154.096 116.493 153.79 116.166C153.445 116.21 153.1 116.255 152.732 116.315C152.358 117.787 150.386 116.816 149.61 118.442C149.6 118.381 149.587 118.836 149.558 119.269C149.231 119.197 149.021 119.143 148.694 119.071C148.551 119.347 148.408 119.622 148.281 119.92C148.148 119.879 147.993 119.854 147.783 119.801C147.565 120.541 147.348 121.282 147.036 122.366C146.952 122.392 146.468 122.434 146.098 122.634C145.729 122.833 145.499 123.274 145.156 123.557C144.514 124.091 143.82 124.457 143.269 125.165C142.674 125.905 141.488 126.113 140.24 126.71C140.193 126.881 140.096 127.363 139.983 127.822C139.773 127.768 139.563 127.715 139.291 127.672C139.052 128.051 138.812 128.43 138.499 128.897C138.265 128.622 137.996 128.439 137.998 128.301C138.079 127.419 138.507 126.732 139.132 126.175C139.476 125.892 139.721 125.474 140.281 124.828C139.197 124.893 138.835 125.293 138.422 125.764C137.337 126.963 136.196 128.133 135.039 129.28C134.779 129.537 134.301 129.54 133.944 129.662C133.529 130.272 133.046 130.931 132.506 131.699C132.52 131.861 132.558 132.245 132.608 132.929C131.817 132.405 131.295 132.063 130.75 131.738C131.272 131.085 131.726 130.482 132.372 129.67C131.843 129.745 131.498 129.789 131.169 129.856C131.157 129.934 131.079 130.299 131.017 130.687C130.523 131.045 129.785 131.306 129.566 131.807C129.334 132.387 128.39 132.077 128.489 132.828C128.326 132.604 128.163 132.379 127.951 132.087C126.647 133.032 125.346 133.838 123.684 133.534C123.575 134.093 123.469 134.513 123.397 134.84C123.092 135.129 122.832 135.386 122.595 135.627C122.628 135.672 122.683 135.7 122.881 135.831C123.471 135.369 124.084 134.89 124.614 134.437C125.339 134.255 126.041 134.088 126.766 133.906C126.862 132.808 128.149 133.589 128.472 132.806C128.466 133.222 128.459 133.639 128.44 134.133C128.046 134.11 127.768 134.105 127.458 134.056C127.433 134.211 127.364 134.399 127.298 134.686C126.534 134.863 125.548 134.686 125.12 135.751C124.79 136.573 123.519 136.569 123.329 137.632C122.466 137.641 121.907 138.115 121.651 139.055C122.509 138.913 123.044 138.422 123.329 137.632C123.566 137.769 123.825 137.89 124.243 138.136C122.449 139.162 120.863 140.38 119.626 142.032C119.509 142.013 119.299 141.96 119.011 141.894C118.502 142.469 118.303 143.471 117.056 143.312C117.498 142.409 117.95 141.566 118.364 140.718C119.296 141.105 119.739 140.201 120.308 139.994C120.573 139.082 120.819 138.286 121.106 137.357C120.038 136.452 118.998 137.24 118.103 137.614C117.443 137.887 117.193 138.96 116.563 139.417C116.001 139.824 115.195 139.894 114.458 140.154C114.385 140.859 114.331 141.446 114.308 141.84C112.016 144.119 110.451 146.832 107.851 148.922C107.828 149.316 107.762 149.982 107.708 150.57C107.354 150.792 107.113 150.932 106.872 151.073C106.945 151.363 107.002 151.63 107.048 151.836C106.456 152.438 105.908 153.006 105.292 153.624C105.423 151.06 107.095 147.927 109.33 146.753C109.41 146.249 109.53 145.751 109.594 145.224C109.602 145.046 109.439 144.822 109.331 144.626C109.646 144.397 109.922 144.163 110.153 143.961C110.215 143.573 110.293 143.208 110.371 142.843C110.487 142.861 110.642 142.886 110.836 142.917C111.234 142.046 112.412 141.637 112.237 140.118C110.973 141.309 110.01 142.487 108.741 143.339C107.501 144.135 106.678 145.554 104.992 145.783C104.844 145.958 104.64 146.243 104.396 146.523L104.027 146.345C104.065 145.734 104.125 145.108 104.163 144.497C104.561 144.243 104.915 144.021 105.352 143.772C105.391 143.401 105.437 142.991 105.532 142.27C104.984 142.461 104.704 142.596 104.431 142.691C104.437 142.275 104.461 141.881 104.467 141.464C105.298 141.239 106.023 141.056 106.916 140.821C106.707 141.384 106.533 141.853 106.317 142.455C106.464 142.657 106.708 142.995 107.008 143.36C107.71 142.2 108.332 141.166 108.932 140.148C108.704 139.833 108.52 139.486 108.308 139.194C108.533 139.031 108.813 138.897 109.038 138.734C109.056 138.995 109.09 139.279 109.112 139.64C109.514 139.486 109.878 139.325 110.577 139.059C110.29 139.609 110.096 139.956 109.735 140.594C110.464 140.512 110.742 140.516 111.148 140.462C112.146 139.189 113.928 138.241 114.865 136.601C114.486 136.362 114.2 136.157 113.86 135.924C114.097 135.683 114.222 135.524 114.385 135.371C114.709 135.582 114.995 135.787 115.264 135.969C115.466 135.822 115.64 135.73 115.836 135.623C116.069 135.66 116.422 135.815 116.54 135.695C116.8 135.438 116.956 135.085 117.31 134.486C117.372 135.092 117.413 135.337 117.447 135.621C117.659 135.535 117.849 135.466 118.062 135.381C117.989 135.091 117.916 134.801 117.81 134.466C118.057 134.287 118.382 134.12 118.691 133.93C118.943 134.09 119.251 134.278 119.663 134.563C119.827 134.032 119.918 133.589 120.148 132.771C119.468 132.921 119.01 133.047 118.453 133.177C118.92 131.74 119.201 130.851 119.454 130.016C120.515 129.967 120.133 130.622 120.117 131.216C120.851 130.855 121.586 130.734 121.651 129.83C122.567 130.194 122.963 129.701 123.187 128.922C123.472 129.126 123.742 129.308 124.066 129.519C124.491 128.97 124.659 128.54 124.309 127.868C124.1 127.437 124.186 126.894 124.144 126.41C123.822 126.06 123.445 125.682 123.09 125.288L123.221 125.09C123.701 125.325 124.141 125.555 124.566 125.762C125.266 124.362 126.885 124.183 127.807 123.137C127.738 122.947 127.653 122.735 127.583 122.545C127.641 122.435 127.688 122.263 127.794 122.22C128.742 121.636 129.662 121.107 130.092 119.903C130.301 119.34 131.139 119.076 131.723 118.652C132.068 119.979 130.968 120.023 130.475 120.62C130.497 120.981 130.506 121.42 130.542 121.943C130.168 122.42 129.736 123.007 129.17 123.692C130.546 123.792 130.354 122.251 131.283 122.16C131.145 121.78 131.037 121.584 130.974 121.356C131.546 121.009 132.079 120.657 132.764 120.229C132.747 120.585 132.771 120.807 132.764 121.224C133.179 120.991 133.526 120.808 134.054 120.495C133.662 120.333 133.497 120.247 133.325 120.2C133.433 119.024 134.395 118.601 135.225 118.137C135.315 117.694 135.371 117.345 135.455 116.941C135.702 116.761 136.005 116.611 136.644 116.216C136.347 117.083 136.16 117.63 135.927 118.348C136.957 118.492 137.352 117.76 137.855 117.602C138.375 116.333 138.838 115.174 139.308 113.976C139.902 113.614 140.519 113.235 141.136 112.856C141.227 112.413 141.333 111.993 141.383 111.683C141.759 111.445 142.045 111.271 142.572 110.958C142.224 111.896 141.974 112.592 141.812 112.984C142.152 113.217 142.47 113.467 142.931 113.818C143.137 112.778 143.271 112.063 143.398 111.388C144.45 111.277 143.82 110.362 144.111 109.911C144.408 109.421 144.831 109.012 145.279 108.447C145.615 108.958 145.82 109.289 145.945 109.507C145.758 110.054 145.539 110.556 145.317 111.197C145.787 111.371 146.107 111.482 146.505 111.605C147.144 111.21 147.806 110.798 148.513 110.354C148.444 110.164 148.359 109.952 148.273 109.74C147.912 109.761 147.589 109.79 147.061 109.864C147.484 109.455 147.837 109.233 148.048 108.908C148.265 108.545 148.333 108.119 148.456 107.721C148.751 108.364 149.282 108.528 150.111 108.442C150.43 107.936 150.829 107.304 151.234 106.633C151.312 106.645 151.522 106.699 151.793 106.742C151.704 106.429 151.647 106.162 151.568 105.911C152.064 105.791 152.566 105.633 153.085 105.497C153.277 105.666 153.507 105.842 153.699 106.012C154.406 105.568 155.045 105.173 155.685 104.778C155.618 104.449 155.522 104.175 155.449 103.885C155.662 103.8 155.852 103.731 156.048 103.623C156.082 103.907 156.123 104.152 156.191 104.719C156.82 103.647 157.311 102.81 157.779 101.99C158.986 101.904 159.899 101.414 160.405 100.361C160.795 100.284 161.201 100.23 161.691 100.149C161.825 99.4345 161.947 98.7978 162.074 98.1223L162.39 98.133C162.474 98.4842 162.551 98.8742 162.697 99.4542C163.245 98.8855 163.675 98.0594 164.287 97.9582C165.067 97.8042 165.719 97.7093 165.987 96.8972C166.971 97.213 167.364 96.2419 168.089 96.0593C168.814 95.8766 169.543 95.794 170.339 95.6625C170.358 95.5462 170.411 95.336 170.477 95.0483C170.699 95.0241 170.983 94.9899 171.283 94.978C171.706 94.5684 172.158 94.1036 172.678 93.59C172.721 93.3185 172.799 92.9532 172.879 92.4491C173.12 92.6863 173.312 92.856 173.552 93.0932C175.828 92.1637 177.315 90.1939 179.213 88.5085C179.474 88.8682 179.686 89.1604 179.947 89.5201C179.703 90.1771 179.43 90.8891 179.111 91.7725C179.687 91.5264 180.05 91.3657 180.559 91.1684C180.705 91.7484 180.825 92.2446 181.048 93.2146C181.465 92.466 181.682 92.103 181.899 91.7399C181.497 91.5168 181.189 91.3286 180.7 91.0319C181.127 90.7222 181.397 90.5266 181.734 90.2822C181.604 89.7247 181.458 89.1447 181.338 88.6485C181.498 88.3956 181.561 88.2467 181.651 88.1815C182.483 87.5785 183.565 87.2739 184 86.1702C184.209 85.6071 185.314 86.2803 185.346 85.3311C186.575 85.6065 186.932 84.4904 187.619 83.9239C187.956 83.6795 188.325 83.48 188.656 83.2743C188.897 83.5114 189.072 83.6587 189.225 83.8222C189.53 83.5328 189.857 83.2271 190.129 82.8927C190.423 82.542 190.74 82.1751 191.019 81.8019C191.572 81.9497 192.124 82.0975 192.677 82.2453C192.63 82.4167 192.581 82.7269 192.534 82.8983C191.446 83.8582 190.426 84.7692 189.406 85.6801C189.479 85.9701 189.558 86.2213 189.632 86.5113C187.971 86.8232 187.971 86.8232 187.164 89.0206C187.024 89.396 186.834 89.8427 186.525 90.0321C185.056 90.8914 184.792 92.7976 183.372 93.7243C183.17 93.871 183.222 94.4161 183.132 94.859C182.208 95.666 180.731 95.9475 180.388 97.6025C181.309 97.312 181.937 96.6168 182.953 96.6C183.431 96.5966 184.093 96.1853 184.388 95.4569C184.655 94.7837 185.337 94.4948 186.184 94.6696C186.184 94.2919 186.179 93.9531 186.179 93.5754L186.481 93.8025ZM170.066 99.4958C170.066 99.4958 169.952 99.3385 169.864 99.2648C169.352 99.3621 168.839 99.4593 168.327 99.5565C168.088 100.552 168.552 101.759 167.522 102.232C167.129 102.208 166.851 102.204 166.59 102.222C166.301 102.912 166.024 103.524 165.758 104.197C168.634 104.238 168.65 101.894 169.267 100.144C169.559 99.9319 169.813 99.7139 169.95 99.0996C170.053 98.9569 170.173 98.6978 170.333 98.4449C170.649 98.8332 170.916 99.1541 171.134 99.4076C171.739 98.7287 171.895 97.9981 171.525 97.2035C170.505 96.7427 169.991 97.5952 169.28 97.9391C169.208 98.2656 169.165 98.5371 169.116 98.8473C169.381 98.9293 169.624 99.0277 170.06 99.5346L170.066 99.4958ZM184.326 87.9915C184.16 88.2832 184.043 88.6423 183.828 88.8665C183.546 89.1397 183.16 89.3167 182.37 89.7871C183.196 89.8393 183.529 89.8725 183.878 89.9281C184.822 89.6213 185.411 88.5423 186.574 88.7277C186.791 88.3647 186.986 88.018 187.18 87.6712C186.607 87.4009 185.995 87.1244 185.295 86.7743C185.415 87.2705 185.494 87.5217 185.587 87.9342C185.187 87.95 184.865 87.9781 184.326 87.9915ZM177.676 94.2874C177.676 94.2874 177.4 94.1441 177.274 94.0643C177.034 94.8213 175.752 94.7561 176.058 96.0773C176.469 96.1228 176.934 96.197 177.438 96.2774C177.539 95.5181 177.599 94.8915 177.66 94.2649L177.676 94.2874ZM123.231 132.388C123.082 131.947 122.989 131.534 122.873 131.138C122.79 131.164 122.712 131.152 122.628 131.178C122.56 131.605 122.531 132.038 122.488 132.309C122.138 132.631 121.901 132.872 121.664 133.112L121.794 133.292C122.215 133.021 122.614 132.767 123.253 132.372L123.231 132.388ZM132.617 124.52C131.834 124.813 131.378 125.178 131.563 126.141C132.271 125.936 132.672 125.543 132.617 124.52Z" fill="#FFA800"/>
<path d="M161.266 145.589C161.188 145.954 161.132 146.303 161.048 146.707C160.469 147.47 159.291 147.5 158.912 148.633C158.76 149.086 158.015 149.524 157.498 149.521C156.426 149.509 155.885 150.039 155.377 150.853C155.246 151.05 154.758 150.993 154.452 151.043C153.982 151.624 153.483 152.26 152.99 152.858C151.567 152.551 150.819 154.5 149.194 153.724C149.117 153.334 149.036 152.844 148.969 152.515C149.619 150.432 151.566 149.191 151.694 146.766C153.168 145.63 154.012 143.577 156.378 142.583C156.917 142.191 156.65 140.876 157.571 140.208C158.313 139.67 158.772 138.789 159.389 138.033C159.583 138.064 159.777 138.095 160.048 138.138C161.251 136.58 163.304 135.675 163.604 133.297C163.979 133.059 164.4 132.788 164.86 132.523C165.16 132.889 165.449 133.194 165.846 133.694C166.506 132.428 166.938 131.085 168.366 130.358C168.315 130.807 168.284 131.001 168.263 131.256C169.422 131.342 168.771 130.065 169.386 129.825C170.522 129.31 171.657 128.795 172.558 128.382C172.923 127.466 173.183 126.832 173.484 126.065C174.531 125.238 176.197 124.887 176.29 122.933C176.71 123.04 176.992 123.145 177.253 123.127C177.453 123.119 177.633 122.989 177.807 122.897C178.067 123.257 178.302 123.533 178.52 123.786C179.432 124.051 178.905 122.615 179.913 122.776C180.379 122.85 180.903 122.058 181.42 121.684C181.937 121.309 182.476 120.918 183.075 120.655C183.612 120.403 184.247 120.285 184.994 120.086C185.089 119.744 185.173 119.34 185.235 118.952C186.008 118.22 187.033 117.648 187.392 116.771C187.75 115.894 188.717 116.187 188.99 115.475C189.553 115.684 189.745 115.476 189.909 114.946C189.975 114.658 190.4 114.487 190.654 114.269C191.359 114.958 192.096 114.698 192.741 114.641C193.076 114.536 192.732 113.825 193.379 114.008C193.512 114.049 193.708 113.563 193.933 113.4C194.225 113.188 194.534 112.999 194.843 112.809C195.151 112.62 195.474 112.214 195.762 112.28C197.407 112.562 197.793 111.013 198.721 110.306C199.148 109.997 199.324 109.389 200.029 109.461C200.071 108.573 200.964 109.332 201.322 108.832C201.629 108.404 202.26 108.187 202.764 107.889C203.23 107.586 203.712 107.305 204.178 107.001C204.243 107.091 204.309 107.181 204.374 107.271C203.734 108.044 203.094 108.817 202.498 109.557C202.198 109.569 201.898 109.58 201.598 109.592C201.54 110.08 201.495 110.49 201.455 110.862C201.731 111.005 201.89 111.13 201.974 111.103C202.672 110.837 203.135 110.056 204.108 110.31C204.318 110.364 204.647 109.919 204.83 109.65C205.472 108.738 206.291 108.213 207.541 108.233C207.815 107.76 208.101 107.209 208.411 106.642C208.876 106.339 209.426 106.009 210.419 105.392C210.018 106.163 209.84 106.532 209.531 107.099C210.478 106.892 211.036 106.763 211.571 106.649C212.513 105.726 213.478 104.786 214.42 103.863C214.233 104.787 213.716 105.54 214.155 106.524C216.038 106.188 217.024 104.616 218.718 103.216C218.432 104.761 218.317 105.736 217.428 106.45C216.68 107.026 216.023 107.776 215.177 108.596C214.789 109.906 214.247 110.436 212.699 111.044C212.145 111.274 211.6 111.704 211.225 112.181C210.551 113.047 209.764 113.618 208.537 113.581C208.118 114.091 207.973 115.122 207.008 114.689C206.546 115.47 206.106 116.235 205.672 116.961C203.902 117.216 202.555 118.055 201.449 119.509C200.077 119.509 199.098 120.287 198.451 121.476C198.163 121.411 197.953 121.357 197.643 121.308C197.432 121.632 197.27 122.024 197.004 122.319C196.367 122.953 195.712 123.565 195.009 124.109C194.313 124.614 193.583 125.074 192.821 125.489C191.538 126.18 190.465 127.301 188.868 127.464C188.484 127.502 188.159 128.046 187.668 128.505C187.278 128.582 186.627 128.677 185.769 128.819C185.417 129.657 184.771 130.469 183.499 130.087C183.405 130.43 183.335 130.617 183.247 130.922C182.785 131.325 181.751 130.703 181.417 131.803C181.246 132.372 180.331 132.624 179.961 133.201C179.392 134.025 178.692 134.43 177.591 134.473C177.18 134.805 177.15 135.993 175.887 135.434C175.891 135.912 175.861 136.345 175.861 136.722C174.354 136.82 173.782 137.166 173.029 138.398C172.662 138.459 172.19 138.423 171.865 138.59C170.807 139.117 169.932 139.992 168.632 140.043C168.309 140.071 167.872 140.319 167.728 140.595C167.302 141.521 166.277 141.715 165.75 142.407C165.171 143.169 164.474 143.674 163.722 144.151C162.925 144.66 162.134 145.131 161.338 145.64L161.266 145.589ZM189.282 119.378C189.508 118.838 189.739 118.258 189.987 117.701L189.702 117.497C189.254 118.062 188.789 118.604 188.297 119.201C188.623 119.273 188.933 119.323 189.26 119.395L189.282 119.378Z" fill="#FFA800"/>
<path d="M76.2891 217.45C74.6565 218.463 73.8979 219.356 73.5365 220.749C73.0931 221.036 72.6109 221.317 72.1225 221.637C72.0315 222.458 71.9241 223.256 71.85 223.721C71.2548 224.461 70.8805 224.938 70.4102 225.519C69.9471 225.306 69.4452 225.087 68.8332 224.811C68.2915 225.341 67.6761 225.958 66.9135 226.751C66.9112 226.89 66.8719 227.262 66.8264 227.672C66.4813 227.716 66.1424 227.722 65.8525 227.795C65.6013 227.874 65.3602 228.015 65.0578 228.165C64.9522 227.83 64.8016 227.528 64.8752 227.44C65.6114 226.564 65.5175 225.157 66.6617 224.465C66.9703 224.275 66.737 223.244 66.7404 222.35C65.3338 223.815 63.5197 224.719 63.6613 226.948C63.3078 227.17 63.0667 227.311 62.7582 227.5C61.8877 226.725 61.0335 225.973 60.0427 225.079C60.984 223.539 61.954 221.945 62.9015 220.366C63.1792 220.37 63.4506 220.414 63.867 220.42C64.0345 218.996 64.669 217.884 65.9784 217.278C66.2133 217.176 66.2712 216.688 66.4555 216.28C66.9411 216.477 67.3491 216.661 67.7571 216.846C67.8661 216.287 67.9729 215.866 68.0735 215.485C68.3061 215.522 68.5388 215.559 68.7327 215.59C69.8229 214.113 71.2476 212.909 71.9754 210.838C72.607 210.243 73.9221 209.976 74.4138 208.762C74.4425 208.707 74.5262 208.68 74.5936 208.631C75.8249 208.39 76.7202 207.638 77.7093 206.921C77.5188 207.368 77.3058 207.831 77.0681 208.449C77.3743 208.399 77.5682 208.43 77.6806 208.348C78.3387 207.837 78.7664 207.149 78.8473 206.268C78.6208 206.192 78.4331 206.122 78.2066 206.046C78.5978 205.214 79.6796 205.287 79.9791 204.281C80.1556 203.673 81.3251 203.82 81.8528 203.128C82.3355 202.47 83.2566 202.179 84.1373 201.644C83.904 203.356 82.0967 203.843 81.9371 205.468C82.5109 205.361 83.0684 205.231 83.8709 205.06C84.1187 204.504 84.4362 203.759 84.8397 202.849C85.1544 202.621 85.6366 202.34 86.1638 202.026C86.2194 201.677 86.2812 201.29 86.3616 200.786C86.719 200.664 87.1439 200.493 87.8036 200.22C87.7935 200.159 87.7328 199.791 87.6823 199.485C89.0777 198.713 89.6694 197.496 90.2286 196.233C90.9783 194.523 92.2417 193.333 93.7905 192.347C95.3168 191.378 96.7353 190.212 98.1863 189.092C98.501 188.864 98.7792 188.491 98.841 188.103C98.9214 187.599 99.1973 187.364 99.5733 187.126C100.152 186.741 100.899 186.542 101.013 185.705C101.904 185.848 102.114 184.907 102.735 184.628C103.379 184.333 103.437 183.468 104.164 183.146C104.528 182.985 104.837 182.418 104.889 181.969C104.953 181.065 105.729 180.811 106.22 180.352C106.874 179.741 107.473 179.101 107.858 178.307C108.329 177.349 109.055 176.788 110.107 176.3C109.891 176.902 109.733 177.394 109.524 177.957C110.649 178.136 110.265 175.808 111.625 176.88C111.658 176.17 111.841 175.523 111.701 174.904C111.561 174.285 110.757 173.839 111.028 173.266C111.395 172.211 112.444 172.239 112.847 171.329C113.228 170.436 113.222 169.48 113.699 168.483C113.946 168.304 114.341 167.949 114.821 167.807C115.378 167.677 115.271 166.726 115.941 166.892C116.859 167.118 116.387 166.088 116.867 165.946C117.453 165.761 118.006 165.531 118.705 165.265C118.74 165.171 118.838 164.928 118.943 164.647C119.678 164.525 120.397 164.382 120.848 164.294C121.512 163.744 122.013 163.347 122.559 162.917C122.803 163.254 122.895 163.428 123.117 163.781C122.806 163.732 122.629 163.724 122.451 163.715C121.94 164.429 121.39 165.136 120.901 165.834C121.719 167.058 122.529 166.093 123.43 166.058C123.599 165.866 123.861 165.471 124.237 165.232C125.124 164.658 125.654 163.828 126.109 162.847C126.385 162.235 126.898 161.76 127.372 161.279C128.045 160.551 128.767 159.891 129.784 159.496C129.42 160.035 129.056 160.573 128.685 161.15C129.014 161.083 129.282 161.027 129.61 160.96C129.806 161.229 130.034 161.544 130.268 161.82C130.407 161.822 130.601 161.853 130.652 161.782C131.323 161.193 131.993 160.604 132.664 160.015C132.349 161.237 131.876 162.335 130.589 162.925C130.593 163.403 130.596 163.88 130.591 164.536C130.344 164.715 129.939 165.008 129.512 165.318C129.581 165.508 129.628 165.714 129.756 166.033C129.085 166.999 128.499 168.178 127.322 168.826C127.104 170.322 125.049 169.994 124.781 171.423C122.716 171.034 122.351 173.699 120.501 173.703C120.423 174.068 120.367 174.417 120.305 174.805C120.095 174.751 119.885 174.698 119.769 174.679C118.534 175.815 117.344 176.917 116.11 178.052C115.869 177.815 115.716 177.652 115.508 177.459C115.826 176.715 117.23 176.76 116.85 175.526C115.901 175.872 114.935 176.195 113.856 176.6C113.749 177.02 113.614 177.495 113.472 178.01C112.682 178.102 111.784 177.999 111.368 178.986C111.079 179.676 110.593 180.234 109.932 181.262C109.999 181.213 109.64 181.474 109.64 181.474C108.39 183.203 107.367 184.631 106.315 186.113C106.315 186.113 106.199 186.095 106.066 186.054C104.862 187.373 103.641 188.669 102.149 190.3C102.149 190.3 102.142 190.717 102.14 190.855C101.146 191.85 100.186 192.512 99.6435 193.42C99.1074 194.288 98.0171 194.393 97.6114 195.442C97.3102 196.209 96.5987 196.93 95.7102 197.266C94.548 197.697 93.4448 198.257 92.2602 198.704C92.0477 198.789 91.8988 198.726 91.6841 198.95C90.2528 200.571 88.5646 201.932 87.1821 203.62C87.0573 203.779 86.8449 203.865 86.6712 203.956C86.2981 205.05 85.9474 206.127 85.527 207.392C84.3626 207.962 83.528 209.081 82.6097 210.227C81.6403 211.445 80.6259 212.694 79.2305 213.466C78.6871 213.757 78.4904 214.243 78.1774 214.71C77.8419 215.193 77.2349 215.633 77.1647 216.198C77.0658 216.819 75.9249 216.617 76.3829 217.485L76.2891 217.45ZM71.4898 216.129C73.5843 214.713 74.3941 212.377 76.052 210.832C76.0745 210.816 76.0317 210.709 75.9952 210.565C75.8688 210.485 75.7097 210.36 75.5507 210.235C75.4911 210.484 75.4214 210.672 75.3905 210.866C75.1579 210.829 74.964 210.798 74.7926 210.751C74.7083 211.155 74.6302 211.52 74.5745 211.869C74.098 212.489 73.1651 212.479 72.933 213.436C72.7419 214.261 71.6657 214.526 71.3706 215.255C70.7968 216.734 69.4672 217.218 68.3269 218.01C68.237 218.075 68.1898 218.247 68.1325 218.357C68.4241 218.523 68.7383 218.672 69.1401 218.895C68.8147 219.44 68.1038 219.784 68.6641 220.509C69.4616 219.623 70.2815 218.719 71.1914 217.751C71.2594 217.325 71.3909 216.749 71.4898 216.129ZM118.032 170.108C118.304 169.774 118.493 169.466 118.768 169.231C119.089 168.965 119.498 168.771 119.851 168.549C119.901 168.239 119.967 167.951 120.039 167.625C119.516 167.661 118.971 167.713 118.448 167.749C118.341 168.547 117.244 169.068 118.049 170.131L118.032 170.108ZM75.3945 209.594C75.2253 209.408 75.0724 209.244 75.0561 209.222C74.2345 209.886 73.4803 210.502 72.7037 211.133C72.9054 211.364 73.0583 211.528 73.2988 211.765C74.0328 211.027 74.7218 210.322 75.4332 209.6L75.3945 209.594ZM114.594 170.475C114.205 171.168 113.931 171.641 113.634 172.131C114.263 172.052 114.792 171.977 115.304 171.88C115.304 171.88 115.345 171.747 115.341 171.647C115.146 171.378 114.957 171.069 114.578 170.452L114.594 170.475Z" fill="#FFA800"/>
<path d="M301.344 41.1191C301.983 40.724 302.449 40.4206 303.021 40.0744C302.701 39.9637 302.513 39.894 302.309 39.8018C302.328 39.6855 302.33 39.5467 302.404 39.459C303.136 38.4823 304.333 37.9574 304.912 36.8172C305.027 36.5969 305.358 36.3912 305.642 36.3569C307.361 36.1737 308.565 35.2324 309.591 33.905C309.841 33.5869 310.305 33.4222 310.697 33.2064C311.04 33.3009 311.421 33.4015 311.974 33.5493C312.391 33.1784 312.876 32.7586 313.552 32.1308C315.014 32.0657 316.739 30.4719 318.782 32.2489C318.097 33.0542 317.508 33.7555 316.817 34.5996C317.429 34.8761 317.931 35.0953 318.526 35.3493C318.183 35.6326 317.901 35.9057 317.394 36.3418C317.939 36.2895 318.262 36.2614 318.545 36.2271C318.166 37.0281 318.137 37.8719 318.46 38.7583C318.235 38.9213 317.994 39.0618 317.708 39.2349C317.86 40.1537 318.028 41.095 317.614 41.9436C318.413 43.0451 317.789 43.8403 317.353 44.7052C317.563 44.7586 317.79 44.8345 318.11 44.9452C318.091 45.4391 318.072 45.9331 318.034 46.5434C318.506 46.5789 319.022 46.5817 319.649 46.6418C319.35 47.2701 319.073 47.8821 318.79 48.5329C317.743 48.366 317.057 48.9324 316.245 49.6579C317.058 49.5489 317.687 49.4703 318.338 49.3753C318.403 49.4652 318.423 49.5877 318.472 49.6552C317.933 50.0463 317.393 50.4374 316.995 50.692C315.805 50.8005 315.637 49.8591 315.064 49.2112C313.953 49.5708 313.753 50.5728 313.403 51.6502C313.811 51.8345 314.07 51.9553 314.423 52.111C313.157 53.4401 312.491 55.5009 310.166 55.3688C310.077 55.6728 310.046 55.8667 309.999 56.0381C308.534 56.0033 307.958 54.4999 306.885 53.8716C306.884 53.6328 306.872 53.3327 306.866 52.9938C304.997 52.8747 303.768 53.9711 302.434 54.7326C301.897 54.6073 301.383 54.4656 300.791 54.3116C301.141 53.9896 301.423 53.7165 301.564 53.5799C301.089 53.4445 300.497 53.2905 299.905 53.1365C299.963 52.6487 299.949 52.4874 300.016 52.4385C300.813 51.9294 301.588 51.4365 302.423 50.9336C302.731 50.1277 303.022 49.2993 303.491 48.1018C302.717 48.5946 302.257 48.8593 301.701 49.228C301.689 48.9279 301.643 48.7216 301.688 48.689C302.813 48.113 303.674 47.0773 305.085 47.0835C305.462 47.084 305.786 46.6783 306.599 46.1916C305.419 45.9836 304.799 45.8847 304.101 45.7735C304.669 44.9496 305.21 44.1808 305.836 43.2468C304.962 43.3659 304.294 43.4384 303.481 43.5474C303.756 43.0743 303.938 42.8051 304.104 42.5134C303.877 42.4375 303.689 42.3678 303.485 42.2757C303.811 41.7311 304.13 41.2253 304.564 40.4993C303.498 40.8263 302.66 41.4681 301.417 41.0314L301.344 41.1191ZM308.701 38.4947C309.076 38.6341 309.358 38.7386 309.639 38.8431C309.604 37.9428 310.126 37.9069 310.718 38.0608C310.931 37.5978 311.193 37.2021 311.306 36.743C311.366 36.494 311.182 36.1467 311.04 35.6668C310.173 36.7413 309.459 37.6017 308.701 38.4947Z" fill="#FFA800"/>
<path d="M118.352 159.622C117.294 160.149 116.407 160.723 115.897 161.676C115.41 162.612 114.526 163.047 113.729 163.557C112.691 164.206 111.675 164.84 110.705 165.44C110.37 166.54 109.885 167.338 108.748 167.613C109.096 166.675 109.221 165.522 109.869 164.949C110.68 164.224 110.886 163.183 111.471 162.381C112.027 161.635 112.71 160.969 113.283 160.245C113.906 159.45 114.771 158.892 115.74 158.052C116.107 157.991 116.765 157.857 117.522 157.72C117.754 157.14 118.02 156.467 118.118 156.224C119.48 154.791 120.531 153.686 121.774 152.374C121.459 153.974 121.2 155.225 120.892 156.786C120.252 157.181 119.349 157.733 118.462 158.307C118.411 158.756 118.394 159.111 118.33 159.638L118.352 159.622Z" fill="#FFA800"/>
<path d="M153.48 139.436C153.255 139.599 153.03 139.762 152.715 139.99C153.052 140.124 153.24 140.193 153.521 140.298C152.585 141.182 151.632 142.044 150.719 142.913C150.64 143.278 150.585 143.627 150.523 144.015C150.313 143.961 150.119 143.93 149.909 143.877C149.853 144.226 149.775 144.591 149.703 144.918C149.117 145.103 148.569 145.294 148.151 145.426C147.602 146.75 147.139 147.909 146.682 149.029C145.365 149.057 144.539 149.999 143.536 150.555C142.465 151.16 141.466 151.816 139.985 152.752C140.353 151.936 140.46 151.516 140.703 151.237C141.478 150.366 142.186 149.545 141.251 148.302C141.635 147.886 141.997 147.487 142.381 147.071C142.463 147.183 142.616 147.347 142.824 147.539C142.519 147.828 142.215 148.118 141.865 148.44C142.459 148.455 142.992 148.48 143.88 148.522C144.516 147.65 145.952 146.745 146.904 145.267C147.383 144.508 148.387 144.191 148.809 143.165C149.133 142.382 150.057 141.952 150.568 141.239C151.255 140.294 151.608 139.078 153.062 138.813C153.176 138.97 153.339 139.195 153.502 139.42L153.48 139.436Z" fill="#FFA800"/>
<path d="M113.885 156.961C113.05 157.086 112.366 157.136 111.709 157.27C111.129 157.416 110.885 158.073 110.14 158.133C109.495 158.189 108.625 158.408 108.373 158.865C107.962 159.575 107.173 158.913 106.812 159.551C106.503 160.118 106.078 160.666 105.438 161.062C104.889 161.391 104.512 162.007 104.009 162.543C103.769 162.306 103.616 162.143 103.463 161.979C104.164 161.574 108.614 157.353 109.148 156.623C109.53 156.724 109.872 156.818 110.254 156.919C110.385 156.721 110.461 156.494 110.634 156.403C110.769 156.305 111.1 156.477 111.235 156.379C111.809 155.894 112.296 155.336 112.87 154.851C113.399 154.398 114.102 154.232 114.332 153.414C114.49 152.922 115.101 152.204 115.35 152.264C116.24 152.545 116.104 151.648 116.513 151.455C118.012 150.78 118.874 149.366 119.892 148.216C120.452 147.57 121 147.001 121.817 146.615C121.954 146.756 122.113 146.881 122.386 147.163C121.779 147.603 121.24 147.994 120.7 148.385C120.733 148.43 120.804 148.481 120.859 148.51C120.094 149.442 119.258 150.322 118.565 151.305C117.57 152.677 116.199 153.672 115.14 154.954C114.33 155.918 114.21 155.8 113.896 157.022L113.885 156.961Z" fill="#FFA800"/>
<path d="M104.573 142.794C102.477 145.72 101.543 146.466 100.559 146.528C100.463 147.626 101.619 147.611 102.091 148.263C102.365 147.79 102.617 147.333 102.898 146.821C103.092 146.852 103.357 146.934 103.761 147.018C103.718 147.29 103.746 147.612 103.598 147.788C103.157 148.314 102.517 148.709 102.675 149.589C102.299 149.827 101.946 150.049 101.418 150.363C101.159 150.242 100.729 150.074 100.415 149.924C99.4437 150.903 98.6299 151.767 97.6363 152.762C97.4863 152.082 97.7442 151.586 97.7982 150.998C98.8688 150.393 99.9618 149.772 99.8725 148.088C99.6297 147.99 99.3931 147.853 99.134 147.732C99.3369 147.208 99.5684 146.628 99.886 145.884C100.629 145.585 101.667 145.313 102.531 144.755C103.328 144.245 103.929 143.466 104.651 142.806L104.573 142.794Z" fill="#FFA800"/>
<path d="M87.6729 160.636C87.8769 160.728 88.1584 160.833 88.3073 160.896C88.223 161.3 88.1387 161.704 88.0381 162.086C88.132 162.121 88.2258 162.155 88.3197 162.19C88.4793 161.937 88.6001 161.678 88.8148 161.454C88.9845 161.262 89.2419 161.144 89.4768 161.043C89.6724 161.312 89.7764 161.409 89.8966 161.527C89.4015 162.263 88.9002 163.038 88.4051 163.775C88.191 163.621 87.9831 163.429 87.5936 163.128C86.5348 165.405 85.1113 167.226 82.3497 166.964C81.7068 168.253 81.1274 169.394 80.5132 170.628C80.1951 170.378 80.0422 170.215 79.8832 170.09C80.4525 168.889 80.9768 167.72 81.4253 166.777C82.7038 166.365 83.8761 165.995 85.0259 165.641C84.9607 165.551 84.8955 165.462 84.8303 165.372C85.2906 164.729 85.757 164.048 86.3421 163.247C86.31 162.824 86.2926 162.185 86.2876 161.469C86.7535 161.165 87.2356 160.884 87.679 160.597L87.6729 160.636Z" fill="#FFA800"/>
<path d="M190.216 95.6902C190.408 94.4882 190.866 93.607 191.839 93.2451C192.576 92.9849 192.763 92.0604 193.708 91.9924C194.415 91.9261 195.042 91.2309 196.08 90.5813C195.812 91.3933 195.66 91.8463 195.607 92.0565C195.662 93.0793 195.71 93.902 195.729 94.7798C194.176 94.2937 193.236 95.0782 192.221 95.7116C191.604 95.7127 190.971 95.6914 190.177 95.6841L190.216 95.6902Z" fill="#FFA800"/>
<path d="M89.7388 156.532C89.4786 157.166 89.2347 157.823 88.956 158.574C89.4769 158.299 89.9529 158.057 90.2328 157.923C90.1749 158.41 90.1047 158.976 90.0322 159.68C89.7405 159.514 89.4325 159.326 89.1021 159.154C88.6278 159.635 88.1372 160.093 87.6629 160.575C87.6449 160.313 87.6106 160.029 87.5971 159.49C87.2577 159.874 87.0143 160.153 86.7485 160.449C86.0219 160.392 85.2014 160.301 84.2971 160.237C84.7613 159.694 85.1418 159.179 85.5773 158.691C85.7021 158.532 85.8656 158.379 86.0556 158.31C86.6153 158.042 87.5741 158.513 87.7573 157.488C88.4086 157.393 88.5649 156.663 89.1021 156.41C89.3123 156.464 89.5225 156.517 89.7327 156.57L89.7388 156.532Z" fill="#FFA800"/>
<path d="M211.421 74.0407C211.144 73.6586 211.085 73.5299 210.945 73.2888C210.373 73.635 209.778 73.9974 209.222 74.3661C209.285 74.5948 209.358 74.8848 209.462 75.3585C208.415 75.1916 207.468 75.0208 206.521 74.8499C206.418 75.748 205.666 75.8469 204.83 76.3499C205.328 75.4749 205.637 74.9078 205.962 74.3633C205.736 74.2874 205.548 74.2177 204.907 73.9963C205.665 73.8586 206.016 73.7754 206.423 73.7209C206.429 73.6821 206.453 73.527 206.513 73.2781C206.956 73.3686 207.421 73.4427 207.67 73.5023C208.302 72.9072 208.837 72.416 209.604 71.7231C209.754 72.4031 209.853 72.7768 209.951 73.2893C210.545 72.9269 211.14 72.5644 211.982 72.0226C211.762 72.9021 211.62 73.4163 211.454 74.0857L211.421 74.0407Z" fill="#FFA800"/>
<path d="M301.521 41.5047C300.997 40.9242 300.708 40.6196 300.386 40.2701C299.942 40.5572 299.483 40.8219 299.039 41.1091C299.088 41.1765 299.121 41.2215 299.147 41.3052C299.549 41.1507 299.968 41.0186 300.37 40.8641C299.465 41.9324 298.402 42.7372 296.361 42.5708C297.294 42.2027 297.803 42.0054 298.501 41.7391C298.132 41.5609 297.863 41.3788 297.608 41.358C296.665 41.2872 296.681 41.3097 295.905 40.1919C296.507 40.0295 297.136 39.9508 297.602 39.6474C297.984 39.3703 298.226 38.8522 298.715 38.1547C298.652 39.046 298.29 39.8233 297.627 40.4864C298.191 40.3178 298.442 40.2386 298.716 40.143L298.66 40.492C299.129 40.0498 299.597 39.6075 300.042 39.1815C300.548 39.5007 300.982 39.7688 301.433 40.0593C301.461 40.3819 301.483 40.7432 301.521 41.5047Z" fill="#FFA800"/>
<path d="M63.9258 175.657C63.8612 175.189 63.8067 174.783 63.7319 174.254C64.9818 173.896 65.5286 172.711 66.108 171.571C66.9307 171.523 67.6697 171.502 68.3312 171.468C68.6184 171.912 68.8078 172.22 69.0033 172.49C68.4722 172.703 67.9372 172.817 67.5163 173.088C67.1403 173.326 66.9436 173.812 66.5739 174.011C66.2429 174.217 65.7938 174.165 65.3038 174.246C65.4195 174.642 65.4988 174.893 65.5331 175.177C65.5331 175.177 65.2268 175.228 65.0593 175.281C64.8694 175.35 64.6794 175.419 64.4732 175.466C64.2832 175.535 64.0933 175.604 63.9258 175.657Z" fill="#FFA800"/>
<path d="M77.0514 167.651C78.2923 166.477 77.8034 164.43 79.8984 164.009C79.6337 164.921 79.5876 165.709 79.2173 166.286C78.8408 166.902 77.8461 167.28 77.7308 167.878C77.56 168.825 76.313 168.666 76.3585 169.628C75.6785 169.778 74.7765 169.574 74.8866 171.003C74.4916 170.364 74.2797 170.072 74.074 169.741C74.2909 169.378 74.5141 168.976 74.7658 168.519C75.9005 168.759 76.5529 167.909 77.0514 167.651Z" fill="#FFA800"/>
<path d="M71.9637 169.385C71.8541 168.95 71.7749 168.698 71.7018 168.408C72.1441 167.505 73.0803 167.992 73.689 167.791C73.7435 168.197 73.798 168.603 73.8362 168.987C73.4687 169.048 73.1236 169.092 72.4048 169.236C73.1287 169.809 73.5344 170.132 74.0278 170.529C73.4333 170.891 72.9898 171.178 72.3953 171.541C72.3143 171.051 72.27 170.706 72.189 170.216C71.2679 170.506 70.3081 170.791 69.3645 171.098C69.6461 169.83 70.5003 169.211 71.9637 169.385Z" fill="#FFA800"/>
<path d="M86.3579 174.622C87.4639 173.546 88.5924 172.453 89.7208 171.361C89.8759 171.386 90.0861 171.439 90.3739 171.505C90.779 170.834 91.2067 170.147 91.6692 169.365C92.1183 169.417 92.5223 169.501 92.9326 169.547C92.8769 169.896 92.8112 170.184 92.7617 170.494C92.5515 170.44 92.3414 170.387 91.9924 170.331C91.8878 170.613 91.7934 170.956 91.595 171.203C91.2882 171.631 90.9364 172.092 90.5093 172.401C90.1721 172.646 89.7534 172.778 89.3409 172.871C88.7834 173.001 88.6132 173.57 88.1697 173.857C87.6527 174.232 87.0643 174.556 86.5147 174.886C86.4495 174.796 86.368 174.683 86.3028 174.593L86.3579 174.622Z" fill="#FFA800"/>
<path d="M97.1069 169.674C97.3694 168.901 97.6481 168.15 97.8471 167.525C98.5625 166.904 99.1655 166.364 99.977 165.638C100.245 165.582 100.824 165.435 101.443 165.296C101.47 165.379 101.539 165.569 101.516 165.586C100.954 165.993 100.814 166.746 100.148 167.057C99.6499 167.316 99.3183 167.899 98.889 168.348C98.3922 168.845 97.9117 169.365 97.4149 169.862C97.3272 169.789 97.2171 169.731 97.1294 169.658L97.1069 169.674Z" fill="#FFA800"/>
<path d="M85.5359 209.58C84.6857 210.299 85.4842 211.401 85.2319 212.235C84.3996 213.216 83.7202 214.36 81.9089 214.747C83.5954 213.148 84.0517 211.033 85.5359 209.58Z" fill="#FFA800"/>
<path d="M249.798 55.5447C250.182 55.5065 250.582 55.4908 251.027 55.4425C251.17 55.1671 251.297 54.8692 251.469 54.5388C251.825 54.5556 252.163 54.55 252.564 54.5343C252.646 54.269 252.728 54.0038 252.838 53.6835C253.673 53.5581 254.547 53.439 255.399 53.3362C253.877 55.0221 251.972 55.7521 249.873 56.0736C249.842 55.8898 249.828 55.7285 249.798 55.5447Z" fill="#FFA800"/>
<path d="M86.9573 174.975C85.4877 176.212 84.2267 177.263 82.8307 178.413C82.8161 178.629 82.8155 179.007 82.8088 179.423C82.2636 179.475 81.841 179.507 81.2571 179.554C81.7949 178.924 82.2754 178.404 82.7233 177.839C83.21 177.28 83.6416 176.693 84.4065 175.761C84.8375 175.552 85.535 174.669 86.9798 174.959L86.9573 174.975Z" fill="#FFA800"/>
<path d="M196.841 83.0671C196.689 82.1483 196.614 81.6194 196.56 81.2131C197.152 80.9895 197.699 80.7984 198.337 80.5421C198.313 79.9419 198.3 79.403 198.28 78.9028C198.572 78.691 198.875 78.5404 199.161 78.3673C199.291 78.5471 199.495 78.6393 199.499 78.7393C199.511 80.0335 199.089 81.0597 198.023 81.7644C197.64 82.0415 197.372 82.4759 196.88 83.0733L196.841 83.0671Z" fill="#FFA800"/>
<path d="M98.0685 147.68C98.2163 148.499 98.2933 148.889 98.3843 149.44C97.9488 149.927 97.4334 150.541 96.6871 151.357C96.7113 151.579 96.7247 152.118 96.732 152.696C96.6196 152.777 96.5073 152.859 96.2662 152.999C96.0571 152.191 95.8582 151.443 95.6429 150.673C96.305 150.262 96.8546 149.932 97.1406 149.759C97.4357 149.031 97.6487 148.567 98.0235 147.713L98.0685 147.68Z" fill="#FFA800"/>
<path d="M70.0784 172.979C70.034 172.634 70.0121 172.273 69.966 171.689C70.7657 172.035 71.3226 172.283 71.9183 172.537C72.4455 172.223 72.9788 171.871 73.5284 171.541C73.6914 171.766 73.8055 171.923 74.0011 172.193C73.339 172.604 72.677 173.016 72.0375 173.411C72.029 173.588 72.0043 173.744 72.0184 173.905C71.3513 173.6 70.6679 173.272 70.0784 172.979Z" fill="#FFA800"/>
<path d="M73.6802 166.974C74.7322 166.486 75.3948 165.697 76.444 165.725C76.4688 165.57 76.5098 165.437 76.5654 165.088C76.8751 165.515 77.142 165.836 77.5556 166.359C76.847 166.564 76.2833 166.733 75.6359 166.928C75.5437 167.132 75.3779 167.424 75.1711 167.848C74.7142 167.596 74.3124 167.373 73.6577 166.99L73.6802 166.974Z" fill="#FFA800"/>
<path d="M139.979 155.158C140.323 157.241 138.031 157.154 137.598 158.496C137.237 158.518 136.853 158.556 136.43 158.588C136.426 158.488 136.396 158.305 136.447 158.233C137.579 157.241 138.734 156.232 139.963 155.136L139.979 155.158Z" fill="#FFA800"/>
<path d="M258.403 66.4205C259.969 64.702 262.002 64.6683 263.909 64.1771C263.089 65.4579 261.791 65.3702 260.613 65.4011C260.5 65.4826 260.4 65.4865 260.388 65.5641C260.335 65.7742 260.281 65.9844 260.193 66.2884C259.709 66.3306 259.164 66.3829 258.419 66.443L258.403 66.4205Z" fill="#FFA800"/>
<path d="M214.095 70.1123C213.883 69.8201 213.776 69.6239 213.694 69.5115C213.8 68.4747 215.252 69.3424 215.28 68.2932C215.921 68.1369 216.569 67.9419 217.255 67.7531C216.966 68.4427 216.734 69.0221 216.497 69.6402C216.338 69.5155 216.146 69.3458 215.795 69.0513C215.268 69.3649 214.69 69.7498 214.095 70.1123Z" fill="#FFA800"/>
<path d="M116.442 135.938C115.781 135.594 115.49 135.428 115.088 135.205C115.34 134.371 115.592 133.536 115.902 132.591C116.222 132.702 116.52 132.829 116.934 132.975C117.459 134.172 115.907 134.68 116.481 135.944L116.442 135.938Z" fill="#FFA800"/>
<path d="M102.852 151.346C103.106 150.75 103.36 150.154 103.633 149.442C103.949 149.453 104.288 149.447 104.743 149.46C104.946 148.936 105.139 148.35 105.522 147.318C105.735 148.227 105.828 148.639 105.944 149.036C104.975 149.875 104.013 150.676 103.066 151.499C103.017 151.432 102.923 151.397 102.875 151.33L102.852 151.346Z" fill="#FFA800"/>
<path d="M100.444 150.861C100.705 151.221 100.786 151.334 100.933 151.536C100.117 152.539 99.2622 153.536 98.2765 154.731C98.1489 154.034 98.0719 153.644 97.9624 153.209C98.5272 152.286 100.08 152.394 100.399 150.894L100.444 150.861Z" fill="#FFA800"/>
<path d="M219.956 67.269C220.006 66.9588 220.071 66.6711 220.156 66.267C221.04 66.2091 221.946 66.135 223.036 66.0304C222.995 66.5407 222.962 66.8734 222.914 67.4224C222.645 67.2404 222.486 67.1156 222.113 66.8374C221.539 66.9448 220.759 67.0987 219.985 67.2139L219.956 67.269Z" fill="#FFA800"/>
<path d="M308.544 62.5456C308.192 62.0123 308.003 61.7037 307.748 61.3053C307.66 61.6093 307.606 61.8195 307.518 62.1235C307.31 61.9313 307.141 61.7453 306.829 61.457C307.751 60.7888 308.657 60.7147 310.139 60.772C309.542 61.2733 309.273 61.4688 309.058 61.6931C308.888 61.8847 308.784 62.1663 308.561 62.5681L308.544 62.5456Z" fill="#FFA800"/>
<path d="M91.5494 164.754C91.9276 163.005 93.1184 162.519 94.13 161.785C93.9968 162.122 93.9513 162.532 93.7304 162.795C93.436 163.146 92.8684 163.214 92.7144 163.806C92.6424 164.133 92.1175 164.307 91.5494 164.754Z" fill="#FFA800"/>
<path d="M76.1519 217.687C77.1944 216.76 78.0121 215.995 79.167 214.986C78.8 216.041 78.5848 216.643 78.3633 217.284C77.7058 217.418 77.0095 217.545 76.1682 217.709L76.1519 217.687Z" fill="#FFA800"/>
<path d="M220.659 73.9612C220.609 74.2714 220.543 74.5592 220.447 75.0408C219.851 75.1644 219.209 75.3207 218.284 75.5112C218.481 75.0256 218.608 74.7278 218.741 74.3911C219.337 74.2675 219.979 74.1113 220.659 73.9612Z" fill="#FFA800"/>
<path d="M148.697 107.958C149.414 107.198 149.51 105.722 150.843 105.716C150.941 105.851 151.023 105.963 151.104 106.075C151.092 106.153 151.135 106.259 151.09 106.292C150.303 106.862 149.5 107.41 148.697 107.958Z" fill="#FFA800"/>
<path d="M69.9922 173.145C70.1226 173.325 70.2693 173.528 70.4362 173.852C69.8495 174.415 69.1099 174.814 68.3602 175.152C68.3153 175.184 68.1461 174.998 68.0197 174.919C68.1714 174.466 68.3395 174.035 68.4974 173.543C68.6727 173.691 68.8806 173.883 69.1111 174.059C69.3994 173.747 69.7039 173.457 69.9922 173.145Z" fill="#FFA800"/>
<path d="M92.081 173.763C91.8366 173.426 91.7287 173.23 91.5882 172.989C92.2951 172.545 92.9796 172.117 93.7254 171.679C93.8721 171.882 94.0024 172.062 94.2306 172.376C93.953 172.372 93.7917 172.386 93.6692 172.406C93.1623 172.842 92.6329 173.295 92.0973 173.786L92.081 173.763Z" fill="#FFA800"/>
<path d="M316.256 59.9378C316.028 59.6231 315.92 59.4269 315.829 59.2533C316.361 58.2844 317.363 58.4839 318.411 58.2732C317.774 59.1459 316.927 59.3488 316.263 59.899L316.256 59.9378Z" fill="#FFA800"/>
<path d="M248.909 56.6351C248.269 57.0302 247.607 57.4416 246.968 57.8366C247.575 57.019 247.838 55.868 249.331 55.609C249.052 55.9821 248.899 56.1962 248.723 56.4266C248.772 56.4941 248.821 56.5615 248.886 56.6514L248.909 56.6351Z" fill="#FFA800"/>
<path d="M186.42 93.8126C185.895 93.9874 185.516 94.7421 184.435 94.2914C184.791 93.9306 184.999 93.7451 185.175 93.5147C185.351 93.2843 185.494 93.0089 185.705 92.6847C185.998 93.0893 186.198 93.4591 186.42 93.8126Z" fill="#FFA800"/>
<path d="M109.33 138.899C109.105 139.062 108.841 139.219 108.6 139.359C108.398 139.506 108.157 139.647 107.871 139.82C107.587 138.482 108.555 138.398 109.438 137.724C109.394 138.373 109.35 138.644 109.346 138.922L109.33 138.899Z" fill="#FFA800"/>
<path d="M67.8033 180.391C68.0764 180.673 68.2129 180.814 68.3658 180.978C67.8403 181.53 67.8122 182.579 66.6343 182.61C66.8698 182.131 67.0255 181.778 67.2199 181.431C67.3919 181.101 67.5801 180.793 67.8257 180.375L67.8033 180.391Z" fill="#FFA800"/>
<path d="M89.7389 156.532C89.5287 156.479 89.3185 156.426 89.1083 156.372C89.335 155.865 89.9352 155.384 90.9089 154.93C90.7246 155.338 90.6139 155.658 90.4234 156.105C90.311 156.186 90.0024 156.376 89.7164 156.549L89.7389 156.532Z" fill="#FFA800"/>
<path d="M111.006 136.86C111.408 137.461 111.787 138.078 112.296 138.875C111.679 138.876 111.24 138.886 110.64 138.909C110.935 138.559 111.088 138.344 111.286 138.098C111.126 137.734 110.926 137.364 110.749 136.978C110.817 136.929 110.923 136.887 111.006 136.86Z" fill="#FFA800"/>
<path d="M201.123 79.2773C200.026 78.8041 200.548 77.774 200.332 77.004C200.734 77.6048 201.112 78.2219 201.524 78.8839C201.389 78.9817 201.264 79.1407 201.123 79.2773Z" fill="#FFA800"/>
<path d="M167.243 96.4998C167.459 95.5202 167.74 94.6306 169.075 94.4856C168.374 95.2685 167.797 95.8923 167.243 96.4998Z" fill="#FFA800"/>
<path d="M77.7257 171.277C77.1772 172.224 76.8124 173.14 75.6407 173.132C76.5129 172.774 76.5067 171.441 77.7257 171.277Z" fill="#FFA800"/>
<path d="M132.631 159.969C133.014 159.315 133.03 158.343 134.32 158.231C134.054 158.526 133.862 158.734 133.653 158.92C133.786 158.961 133.896 159.018 134.045 159.082C133.579 159.385 133.097 159.666 132.631 159.969Z" fill="#FFA800"/>
<path d="M77.1979 182.943C77.3997 183.174 77.5036 183.27 77.6728 183.456C77.2249 184.021 76.777 184.586 76.3291 185.151C76.2251 185.054 76.115 184.997 76.011 184.901C76.3875 184.285 76.7866 183.653 77.2204 182.927L77.1979 182.943Z" fill="#FFA800"/>
<path d="M306.162 61.1521C305.748 62.0007 305.548 62.3862 305.398 62.7003C304.998 62.7161 304.598 62.7318 304.053 62.7841C304.542 62.0866 305.228 61.8978 306.162 61.1521Z" fill="#FFA800"/>
<path d="M67.0419 176.314C66.9678 175.407 66.9295 175.023 66.8835 174.439C67.2263 174.534 67.4814 174.555 67.7017 174.669C68.0709 174.847 68.0647 174.886 67.0419 176.314Z" fill="#FFA800"/>
<path d="M94.6192 152.856C94.4562 152.631 94.3258 152.451 94.2078 152.194C94.5613 151.972 94.8923 151.766 95.2458 151.544C95.4088 151.769 95.5391 151.949 95.6572 152.206C95.3037 152.428 94.9727 152.634 94.6192 152.856Z" fill="#FFA800"/>
<path d="M248.066 54.812C247.776 54.8851 247.257 55.0211 246.761 55.1408C246.741 55.0183 246.711 54.8345 246.755 54.8019C247.25 54.4434 247.793 54.1523 248.635 53.9882C248.453 54.2574 248.287 54.5491 248.105 54.8182L248.066 54.812Z" fill="#FFA800"/>
<path d="M223.91 68.6542C224.046 68.1788 224.204 67.6871 224.345 67.1729C224.478 67.2139 224.749 67.2572 225.17 67.3639C224.867 67.8922 224.576 68.3429 224.302 68.8161C224.169 68.7751 224.037 68.7341 223.888 68.6705L223.91 68.6542Z" fill="#FFA800"/>
<path d="M49.1219 198.804C48.7768 198.849 48.5931 198.879 48.3868 198.926C47.8715 198.168 48.4194 197.599 48.7021 196.948C48.7527 197.254 48.8257 197.544 48.8763 197.851C48.9331 198.118 48.9898 198.386 49.0994 198.821L49.1219 198.804Z" fill="#FFA800"/>
</g>
<defs>
<clipPath id="clip0_365_1632">
<rect width="364.784" height="60.8899" fill="white" transform="translate(0 214.115) rotate(-35.9418)"/>
</clipPath>
</defs>
</svg>
